<svg width="24" height="24" viewBox="0 0 24 24" fill="none" xmlns="http://www.w3.org/2000/svg">
<path d="M17.4762 21H8.42857V9.3L14.7619 3L15.8929 4.125C15.9984 4.23 16.0853 4.3725 16.1534 4.5525C16.221 4.7325 16.2548 4.905 16.2548 5.07V5.385L15.2595 9.3H20.1905C20.673 9.3 21.0952 9.48 21.4571 9.84C21.819 10.2 22 10.62 22 11.1V12.9C22 13.005 21.9885 13.1175 21.9656 13.2375C21.9433 13.3575 21.9095 13.47 21.8643 13.575L19.15 19.92C19.0143 20.22 18.7881 20.475 18.4714 20.685C18.1548 20.895 17.823 21 17.4762 21ZM6.61905 9.3V21H3V9.3H6.61905Z" fill="#9497A6"/>
</svg>
