<svg width="867" height="227" viewBox="0 0 867 227" fill="none" xmlns="http://www.w3.org/2000/svg">
<g filter="url(#filter0_i_2058_8633)">
<g filter="url(#filter1_d_2058_8633)">
<path d="M201.901 32.6617V34.6925H169.24V36.554H202.409V45.8617H169.24V47.7233H209.686V57.7079H106.117V47.7233H146.563V45.8617H113.394V36.554H146.563V34.6925H114.071V32.6617H106.117V5.92327H145.547V2.2002H170.424V5.92327H209.855V32.6617H201.901ZM128.794 20.9848V25.3848H146.732V23.0156H169.409V25.3848H187.347V20.9848H128.794ZM113.732 60.0771H202.071V86.4771H176.686V85.4617H139.286V86.4771H113.901V60.0771H113.732ZM176.686 73.4463V70.9079H139.286V73.4463H176.686Z" fill="url(#paint0_linear_2058_8633)"/>
</g>
<g filter="url(#filter2_d_2058_8633)">
<path d="M302.086 6.26092H320.871V86.4763H296.671V85.4609H281.44V86.4763H257.24V49.2455L252.332 50.2609V86.4763H227.455V63.9686L218.824 62.784C220.855 52.2917 221.871 38.9225 221.871 22.8455V19.4609L227.455 19.9686V3.89169H252.163V29.1071C254.363 35.0301 256.055 40.2763 257.071 45.0148V6.26092H276.194L277.886 1.52246L303.271 3.21477L302.086 6.26092ZM296.501 37.2301V25.8917H281.271V37.2301H296.501ZM281.271 54.1532V65.8301H296.501V54.1532H281.271Z" fill="url(#paint1_linear_2058_8633)"/>
</g>
<g filter="url(#filter3_d_2058_8633)">
<path d="M437.809 62.1077C434.424 70.4 432.055 78.5231 430.701 86.6462C424.271 85.1231 418.348 82.5846 413.101 79.0308C410.394 80.5539 407.517 81.9077 404.132 82.9231C400.748 83.9385 396.517 85.1231 391.44 86.3077L389.409 76.4923L388.394 71.4154C387.209 77.8462 385.517 83.2616 383.486 87.1539C380.271 85.1231 376.886 83.4308 373.332 82.2462C369.948 81.0616 365.886 80.2154 361.486 79.3693V85.8H341.009V70.0616L334.917 75.8154C334.409 70.4 333.901 65.4923 333.224 61.6C332.548 57.5385 331.532 53.477 329.84 49.4154C332.886 47.2154 335.763 44.5077 338.64 41.1231C341.517 37.7385 344.055 34.1846 346.424 30.4616H333.901V9.47695H341.178V2.87695H363.517V9.47695H368.594V29.7846C366.055 34.8616 363.517 39.4308 361.317 43.1539V47.2154C364.024 42.6462 365.886 39.0923 366.901 36.7231L370.624 41.2923C370.794 36.5539 370.794 32.6616 370.794 29.9539C370.794 27.2462 370.794 22.5077 370.624 15.9077L370.455 7.10772H391.271H396.178V2.87695H412.932V7.44618H436.963L436.794 11.8462C436.794 12.8616 436.624 16.077 436.286 21.3231C435.948 26.5693 435.609 30.1231 435.271 32.1539H433.578C433.578 43.4923 431.378 53.477 427.148 62.1077C429.348 62.2769 431.04 62.2769 432.055 62.2769C433.748 62.4462 435.609 62.2769 437.809 62.1077ZM396.517 31.1385V26.5693H391.609V31.1385H396.517ZM417.163 31.1385L417.332 26.5693H413.271V31.1385H417.163ZM389.578 63.6308C390.255 63.6308 391.101 63.8 392.286 63.8C394.317 63.8 396.348 63.6308 398.378 63.1231C395.163 57.7077 392.963 51.6154 391.778 45.1846H391.101C390.763 52.6308 390.255 58.8923 389.578 63.6308ZM405.486 45.0154C407.009 48.5693 408.701 51.4462 410.563 53.6462C411.917 51.1077 412.932 48.2308 413.778 45.0154H405.486ZM365.548 52.9693L369.609 55.8462C370.117 53.4769 370.286 51.1077 370.624 48.5693L365.548 52.9693ZM361.655 79.3693C363.178 76.6616 364.532 73.9539 365.548 71.2462C363.855 66.677 362.501 63.2923 361.655 61.4308V79.3693Z" fill="url(#paint2_linear_2058_8633)"/>
</g>
<g filter="url(#filter4_d_2058_8633)">
<path d="M549.332 17.4297C540.701 17.9374 527.332 18.2758 509.224 18.7835V20.3066H549.332V40.1066H507.363L507.194 41.9681H549.163V73.445C549.163 77.1681 548.824 79.8758 548.148 81.2296C547.471 82.7527 546.117 83.5989 544.086 84.1066C542.055 84.6143 538.163 85.122 532.578 85.4604L532.24 80.5527H527.332V68.7066H525.471V80.5527H519.04L518.871 68.7066H517.178V85.4604H504.655V58.5527C504.317 65.9989 503.132 74.122 501.44 82.5835C496.024 79.8758 491.624 77.845 488.24 76.6604C487.901 80.045 486.717 82.4143 484.855 83.5989C482.994 84.7835 479.948 85.4604 475.378 85.7989L475.209 83.0912L472.501 83.4296C471.824 77.6758 470.64 71.245 469.117 64.3066H473.855L474.701 67.6912C475.04 67.1835 475.209 66.5066 475.209 65.6604C475.209 64.645 475.209 63.6297 475.209 62.445H456.932L456.763 64.3066H461.501L462.009 67.6912C463.024 75.1373 463.532 80.722 463.701 84.6143L458.624 85.122C458.624 82.5835 458.117 78.1835 457.271 72.2604L456.932 68.8758C456.932 72.5989 456.763 75.8143 456.594 78.1835C456.424 80.5527 456.255 83.0912 455.917 85.7989C452.701 85.2912 449.655 84.7835 446.778 84.6143C447.624 80.045 448.132 76.322 448.471 73.6143C448.809 70.7373 448.978 67.1835 448.978 62.6143H448.132V4.73735H487.732V19.7989H483.332V22.5066H487.055V33.6758H483.332V36.3835H487.055V46.8758H483.332V49.7527H488.409V61.9373C489.086 58.5527 489.594 54.4912 489.763 49.922C490.101 45.3527 490.271 39.2604 490.271 31.9835V21.8297V5.92196C501.101 5.5835 518.532 4.90658 542.901 3.8912L550.855 3.55273C550.178 5.5835 549.84 7.61427 549.671 9.47581C549.332 11.5066 549.332 14.045 549.332 17.4297ZM471.317 22.5066V19.7989H464.209V22.5066H471.317ZM507.532 31.1374H530.209V29.1066H507.532V31.1374ZM464.209 36.3835H471.317V33.6758H464.209V36.3835ZM464.209 49.7527H471.317V46.8758H464.209V49.7527ZM519.04 59.5681L518.871 54.1527H517.178V59.5681H519.04ZM525.301 54.1527V59.5681H527.332V54.1527H525.301ZM535.455 59.5681L535.286 54.1527H533.424V59.5681H535.455ZM467.763 64.4758C468.271 66.5066 468.778 69.3835 469.455 73.1066C470.132 76.8297 470.64 80.3835 471.148 83.7681L465.563 84.7835C465.394 80.8912 464.886 77.1681 464.378 73.445C463.871 69.722 463.532 67.6912 463.363 67.0143L462.855 64.4758H467.763ZM533.424 71.5835H534.271C534.778 71.5835 534.948 71.5835 535.117 71.4143C535.286 71.245 535.286 70.9066 535.286 70.5681V68.5373H533.255V71.5835H533.424Z" fill="url(#paint3_linear_2058_8633)"/>
</g>
<g filter="url(#filter5_d_2058_8633)">
<path d="M663.394 18.2767H654.594V21.1537H662.717V32.6614H654.594V35.5383H662.717V47.3844H654.594V50.2614H663.394V73.2767C663.394 76.4921 662.717 78.8614 661.532 80.7229C660.347 82.4152 658.317 83.5998 655.778 84.2767C653.24 84.9537 649.686 85.4614 644.778 85.6306C644.609 83.4306 644.44 81.7383 644.271 80.3844L640.886 81.3998C640.378 78.0152 639.532 74.7998 638.686 71.246C637.671 67.8614 636.994 65.3229 636.147 63.4614H642.917C643.763 65.8306 644.271 67.1844 644.44 67.5229C645.624 66.846 646.301 65.6614 646.301 64.1383C646.301 63.7998 646.132 62.9537 645.794 61.5998H620.409L620.24 63.4614H626.163C628.024 72.0921 629.04 79.0306 629.378 84.446L621.763 85.7998C621.594 81.9075 621.086 77.6767 620.409 72.9383L620.071 70.3998C619.732 77.846 619.394 82.7537 619.224 85.2921C615.671 84.6152 611.101 84.1075 605.517 83.5998L606.363 79.1998C607.209 75.1383 607.717 71.9229 608.055 69.7229C608.394 67.5229 608.732 64.8152 608.901 61.4306H608.224V4.73828H663.394V18.2767ZM563.209 5.07674H605.517V81.2306H582.671V83.4306H563.209V5.07674ZM630.055 21.3229H638.009V18.446H630.055V21.3229ZM582.671 24.8767V59.569H586.732V24.8767H582.671ZM630.055 35.7075H638.009V32.8306H630.055V35.7075ZM630.055 50.4306H638.009V47.5537H630.055V50.4306ZM634.455 63.969C635.978 68.8767 637.332 74.969 638.686 82.4152L631.24 84.1075C630.901 80.8921 630.224 76.4921 629.04 71.0767C628.194 68.0306 627.855 65.6614 627.686 63.969H634.455V63.969Z" fill="url(#paint4_linear_2058_8633)"/>
</g>
<g filter="url(#filter6_d_2058_8633)">
<path d="M713.994 0C720.932 0 727.194 1.18462 732.948 3.38462C738.871 5.75385 743.44 8.96923 746.824 13.0308C750.209 17.0923 751.901 21.8308 751.901 27.2462C751.901 31.6462 750.886 35.3692 748.686 38.4154C746.655 41.4615 743.948 44 740.732 46.0308L734.978 49.2462C731.932 50.9385 729.732 52.1231 728.886 52.8C727.194 53.8154 726.009 55 725.501 56.1846C724.825 57.3692 724.486 58.8923 724.486 60.5846H699.609C699.609 55.1692 700.963 50.4308 703.501 46.8769C706.04 43.1538 710.44 39.9385 716.532 37.0615C719.24 35.8769 721.271 34.5231 722.455 33C723.809 31.4769 724.486 29.7846 724.486 27.9231C724.486 25.8923 723.471 24.0308 721.44 22.5077C719.409 20.9846 717.04 20.3077 713.994 20.3077C709.932 20.3077 706.717 21.3231 704.348 23.3538C702.148 25.3846 700.963 28.2615 700.963 31.9846C700.963 33.5077 701.132 35.0308 701.64 36.8923C695.886 35.2 687.255 34.3538 675.748 34.3538C675.748 33.6769 675.578 32.8308 675.578 31.6462C675.578 25.5538 677.101 20.1385 680.317 15.4C683.532 10.4923 688.101 6.76923 693.855 4.06154C699.778 1.35385 706.548 0 713.994 0ZM724.486 88H699.44V68.7077H724.486V88Z" fill="url(#paint5_linear_2058_8633)"/>
</g>
</g>
<g filter="url(#filter7_i_2058_8633)">
<g filter="url(#filter8_d_2058_8633)">
<path d="M95.0385 145.765C95.611 143.873 95.9927 141.602 96.1835 139.142H92.5576V191.56C92.5576 195.344 91.7942 198.183 90.2675 199.886C88.7408 201.589 85.8782 202.725 81.6797 203.481C77.4812 204.049 70.8018 204.238 61.6414 204.238C61.6414 199.886 61.0689 195.344 59.9239 190.614C59.3514 193.263 58.588 196.669 57.443 200.643C54.5804 198.94 51.1452 197.426 47.1376 196.101C43.3208 194.587 39.504 193.641 36.0688 192.884V204.995H9.9237V177.935C8.20614 178.692 6.67941 179.259 5.34353 179.638C4.96185 173.015 4.58017 167.338 3.81681 162.796C3.24429 158.065 1.9084 153.334 0 148.225C5.53437 148.225 8.96949 146.711 10.6871 143.683C11.4504 142.169 11.8321 137.249 11.8321 128.923C11.8321 122.867 11.6413 117.569 11.2596 113.027L39.3131 113.216C39.1223 120.786 38.7406 127.031 38.3589 132.14C42.5574 126.463 44.6566 119.84 44.6566 112.081L68.3209 112.27C68.13 114.163 67.9392 115.677 67.7483 116.623H119.275C119.275 123.246 119.275 128.544 119.084 132.708C119.084 136.871 118.703 141.223 118.13 145.765H95.0385V145.765ZM61.8323 180.395C64.1224 180.395 65.6491 180.206 66.4124 179.827C67.3667 179.449 67.7483 179.07 67.9392 178.692C68.13 178.313 68.13 177.556 68.13 176.61V138.952H61.2598C60.4964 140.656 59.3514 142.926 57.6338 145.576L65.2674 146.333C64.6949 159.957 63.359 171.312 61.8323 180.395ZM115.458 147.657C115.458 155.416 116.031 162.607 116.985 169.419C117.939 176.042 119.275 184.936 121.184 195.912C117.558 196.291 113.359 196.858 108.779 197.615C104.39 198.372 100.382 199.129 97.3286 200.075C96.1835 186.829 95.4202 169.608 95.2293 148.414L115.458 147.657ZM36.0688 191.56C37.7864 186.829 39.3131 181.909 40.8398 176.989C42.3666 171.879 43.7024 167.148 44.6566 162.985L41.4124 166.202C40.8398 164.688 40.2673 162.228 39.504 159.011C38.3589 154.28 37.4047 150.496 36.2597 147.657L36.0688 148.603V191.56V191.56Z" fill="url(#paint6_linear_2058_8633)"/>
</g>
<g filter="url(#filter9_d_2058_8633)">
<path d="M252.673 177.178C249.81 180.773 247.52 184.937 245.802 189.289C244.085 193.641 242.558 198.94 241.222 205.185C226.146 200.832 214.123 195.723 205.344 190.046V205.374H176.146V190.235C166.985 196.101 154.962 201.022 140.268 205.185C138.932 198.94 137.405 193.641 135.687 189.289C133.97 184.937 131.68 180.773 128.817 176.989C135.878 176.61 142.748 175.853 149.81 174.529C156.871 173.204 163.359 171.69 169.084 169.987C165.84 168.095 163.359 166.392 161.451 165.256C159.733 166.77 157.443 168.095 154.771 169.419C152.291 170.744 147.901 172.636 141.985 175.475C141.794 170.744 141.031 166.77 139.695 163.553C138.55 160.336 136.451 157.308 133.779 154.47C136.642 154.47 139.123 154.091 141.603 153.713C144.084 153.145 145.611 152.577 146.565 151.82C147.52 151.064 148.092 150.117 148.283 148.982C148.474 147.847 148.665 146.522 148.665 144.819V139.52L168.512 139.709L168.321 144.819L168.13 148.414C170.611 149.928 173.283 151.064 176.146 152.01V138.196H134.161V115.487H176.146V111.324H205.153V115.487H247.138V138.006H205.153V155.227C207.825 154.47 209.543 153.334 210.497 151.82C211.069 151.064 211.26 150.117 211.451 148.982C211.642 147.847 211.642 146.333 211.642 144.63V139.331L229.772 139.52V148.793V149.171C233.589 150.307 238.741 151.442 245.611 152.577C243.131 154.848 241.222 158.065 239.695 162.228C238.169 166.202 237.214 170.365 236.833 174.718C234.161 173.015 231.108 171.122 227.482 169.23L223.665 166.959C222.329 168.095 219.657 169.419 216.031 171.122C227.291 174.529 239.505 176.421 252.673 177.178ZM171.184 169.609L176.146 167.716V158.444L171.184 169.609ZM205.153 167.716C206.298 168.284 207.253 168.662 208.207 168.852C209.161 169.23 210.115 169.419 210.688 169.609C209.161 166.392 207.253 163.742 205.153 161.282V167.716Z" fill="url(#paint7_linear_2058_8633)"/>
</g>
<g filter="url(#filter10_d_2058_8633)">
<path d="M317.749 157.497H287.978V203.67H262.787V113.405H317.749V157.497V157.497ZM375.001 190.802C375.001 194.965 374.238 197.804 372.902 199.507C371.566 201.21 368.322 202.346 363.36 202.913C358.398 203.481 350.001 203.67 337.978 203.67C337.978 201.21 337.787 198.75 337.597 196.101H312.596V198.75H290.459V160.146H347.329V178.691C348.474 178.691 349.429 178.502 349.81 178.313C350.383 178.124 350.574 177.745 350.574 177.177C350.574 176.61 350.765 175.474 350.765 173.582V157.308H320.039V113.405H374.81V185.315V190.802H375.001ZM297.52 126.273H287.978V129.301H297.52V126.273ZM350.765 129.301V126.273H340.268V129.301H350.765ZM297.52 143.683V140.466H287.978V143.683H297.52ZM340.268 140.466V143.683H350.765V140.466H340.268ZM325.192 174.717H312.787V179.07H325.192V174.717Z" fill="url(#paint8_linear_2058_8633)"/>
</g>
<g filter="url(#filter11_d_2058_8633)">
<path d="M402.673 179.828C406.299 179.828 409.353 181.153 411.834 183.991C414.314 186.641 415.65 190.615 415.65 195.535C415.65 199.509 414.887 203.861 413.36 208.213C412.024 212.566 410.116 216.161 407.444 219H397.139C400.574 214.458 402.673 209.916 403.627 205.375C399.429 205.375 395.994 204.05 393.513 201.59C391.032 199.13 389.696 196.102 389.696 192.507C389.696 188.911 391.032 185.884 393.513 183.424C395.994 181.153 399.047 179.828 402.673 179.828Z" fill="url(#paint9_linear_2058_8633)"/>
</g>
<g filter="url(#filter12_d_2058_8633)">
<path d="M504.391 149.171C510.307 163.553 524.811 173.015 547.903 177.556C544.086 181.909 541.032 186.072 538.933 190.235C536.834 194.398 534.353 200.075 531.681 206.888C522.903 204.239 514.315 199.886 506.109 193.641C497.902 187.397 491.414 179.449 486.452 169.987C481.49 179.26 474.811 187.207 466.605 193.452C458.399 199.697 450.002 204.239 441.223 206.699C438.551 199.697 436.07 194.209 433.971 190.046C431.872 185.883 428.818 181.53 425.001 177.367C448.093 173.015 462.406 163.364 468.322 148.982H430.727V122.489H471.376L471.566 111.324L501.528 111.513L501.338 122.489H542.177V149.171H504.391V149.171Z" fill="url(#paint10_linear_2058_8633)"/>
</g>
<g filter="url(#filter13_d_2058_8633)">
<path d="M658.781 171.5C662.979 175.663 667.75 179.259 673.285 182.097C671.185 184.936 669.086 187.585 667.369 190.424C665.46 193.073 664.315 194.965 663.743 195.722C661.453 199.318 659.544 201.967 658.208 203.859C645.422 192.884 634.162 176.231 624.43 153.712L640.46 150.874H618.514C622.33 155.415 625.766 160.714 628.819 167.148C631.872 173.392 633.399 178.691 633.399 183.043C633.399 188.153 632.636 192.127 631.109 195.154C629.582 197.993 626.147 200.453 620.613 202.345C615.078 204.049 606.681 204.995 595.231 204.995C594.849 203.859 594.277 202.535 593.323 200.832C592.368 199.128 591.414 197.425 590.269 195.722C583.59 198.939 575.193 201.967 565.269 204.427C561.834 196.479 557.826 190.424 553.437 186.45C566.796 184.747 577.483 182.665 585.498 180.205C593.704 177.745 601.147 174.528 608.017 170.554L606.681 168.662C599.62 172.446 592.941 175.285 586.834 177.556C580.727 179.826 573.094 181.719 564.124 183.233C563.933 182.854 563.361 181.908 562.406 180.394C561.643 178.88 560.689 177.556 559.735 176.231C558.781 175.096 557.635 173.96 556.49 173.203C566.223 172.068 574.239 170.554 580.727 168.472C587.407 166.391 593.704 163.742 599.62 160.146L598.094 158.632C592.75 161.66 587.216 164.12 581.491 166.202C575.765 168.094 569.468 169.419 562.597 170.554C562.597 170.365 562.025 169.419 561.071 167.715C558.781 163.552 556.681 160.146 554.773 157.875C562.979 157.118 569.849 156.172 575.384 155.226C580.918 154.091 585.498 152.577 588.742 150.684H571.948V142.547H556.109V115.108H600.575V111.513H628.628V115.108H673.094V142.736H657.254V148.981C658.972 147.089 660.689 145.007 662.407 142.736C664.888 147.089 666.987 150.684 668.705 153.144C670.422 155.604 672.331 157.875 674.43 159.957C671.185 163.363 665.842 167.148 658.781 171.5ZM647.712 135.546V133.275H581.681V135.546H647.712ZM645.422 150.684C646.185 152.766 647.14 154.847 648.285 156.929C650.766 155.226 653.247 153.144 655.537 150.684H645.422ZM603.246 188.153C606.681 187.774 609.162 187.207 610.117 186.26C611.262 185.314 612.025 183.8 612.216 181.719C608.781 184.368 605.727 186.45 603.246 188.153Z" fill="url(#paint11_linear_2058_8633)"/>
</g>
<g filter="url(#filter14_d_2058_8633)">
<path fill-rule="evenodd" clip-rule="evenodd" d="M790.571 153.902C794.46 147.985 798.876 142.946 803.82 138.953C795.041 137.439 787.407 136.114 781.3 134.6C775.194 133.086 768.705 131.194 761.453 128.545H799.239V115.487H759.354V111.324H727.102V115.487H687.216V128.734H725.003C717.751 131.383 711.071 133.275 704.964 134.789C698.857 136.114 691.415 137.628 682.636 138.953C687.579 142.946 691.996 147.985 695.885 153.902H692.56V189.289H793.514V153.902H790.571ZM787.576 153.902C777.618 150.827 768.161 147.118 759.354 142.926V153.902H787.576ZM727.102 153.902V142.926C718.295 147.118 708.837 150.827 698.879 153.902H727.102ZM764.506 164.499V166.77H721.567V164.499H764.506ZM721.567 178.692V176.232H764.506V178.692H721.567ZM686.644 191.56V203.671H799.621V191.56H686.644Z" fill="url(#paint12_linear_2058_8633)"/>
</g>
<g filter="url(#filter15_d_2058_8633)">
<path d="M858.018 110C858.018 115.488 857.827 125.706 857.446 141.035C857.255 143.495 857.255 145.198 857.255 146.333C855.537 157.687 854.583 167.717 854.201 176.043H831.682C831.301 167.527 830.346 157.687 828.629 146.333L828.438 141.035C827.865 128.545 827.675 118.137 827.675 110H858.018ZM856.873 206.888H828.629V185.315H856.873V206.888Z" fill="url(#paint13_linear_2058_8633)"/>
</g>
</g>
<defs>
<filter id="filter0_i_2058_8633" x="106.117" y="0" width="645.785" height="88" filterUnits="userSpaceOnUse" color-interpolation-filters="sRGB">
<feFlood flood-opacity="0" result="BackgroundImageFix"/>
<feBlend mode="normal" in="SourceGraphic" in2="BackgroundImageFix" result="shape"/>
<feColorMatrix in="SourceAlpha" type="matrix" values="0 0 0 0 0 0 0 0 0 0 0 0 0 0 0 0 0 0 127 0" result="hardAlpha"/>
<feOffset dx="4" dy="4"/>
<feComposite in2="hardAlpha" operator="arithmetic" k2="-1" k3="1"/>
<feColorMatrix type="matrix" values="0 0 0 0 0.952941 0 0 0 0 0.956863 0 0 0 0 0.964706 0 0 0 1 0"/>
<feBlend mode="normal" in2="shape" result="effect1_innerShadow_2058_8633"/>
</filter>
<filter id="filter1_d_2058_8633" x="106.117" y="2.2002" width="111.739" height="92.2773" filterUnits="userSpaceOnUse" color-interpolation-filters="sRGB">
<feFlood flood-opacity="0" result="BackgroundImageFix"/>
<feColorMatrix in="SourceAlpha" type="matrix" values="0 0 0 0 0 0 0 0 0 0 0 0 0 0 0 0 0 0 127 0" result="hardAlpha"/>
<feOffset dx="4" dy="4"/>
<feGaussianBlur stdDeviation="2"/>
<feComposite in2="hardAlpha" operator="out"/>
<feColorMatrix type="matrix" values="0 0 0 0 0.803922 0 0 0 0 0.129412 0 0 0 0 0.027451 0 0 0 0.7 0"/>
<feBlend mode="normal" in2="BackgroundImageFix" result="effect1_dropShadow_2058_8633"/>
<feBlend mode="normal" in="SourceGraphic" in2="effect1_dropShadow_2058_8633" result="shape"/>
</filter>
<filter id="filter2_d_2058_8633" x="218.824" y="1.52246" width="110.046" height="92.9541" filterUnits="userSpaceOnUse" color-interpolation-filters="sRGB">
<feFlood flood-opacity="0" result="BackgroundImageFix"/>
<feColorMatrix in="SourceAlpha" type="matrix" values="0 0 0 0 0 0 0 0 0 0 0 0 0 0 0 0 0 0 127 0" result="hardAlpha"/>
<feOffset dx="4" dy="4"/>
<feGaussianBlur stdDeviation="2"/>
<feComposite in2="hardAlpha" operator="out"/>
<feColorMatrix type="matrix" values="0 0 0 0 0.803922 0 0 0 0 0.129412 0 0 0 0 0.027451 0 0 0 0.7 0"/>
<feBlend mode="normal" in2="BackgroundImageFix" result="effect1_dropShadow_2058_8633"/>
<feBlend mode="normal" in="SourceGraphic" in2="effect1_dropShadow_2058_8633" result="shape"/>
</filter>
<filter id="filter3_d_2058_8633" x="329.84" y="2.87695" width="115.969" height="92.2773" filterUnits="userSpaceOnUse" color-interpolation-filters="sRGB">
<feFlood flood-opacity="0" result="BackgroundImageFix"/>
<feColorMatrix in="SourceAlpha" type="matrix" values="0 0 0 0 0 0 0 0 0 0 0 0 0 0 0 0 0 0 127 0" result="hardAlpha"/>
<feOffset dx="4" dy="4"/>
<feGaussianBlur stdDeviation="2"/>
<feComposite in2="hardAlpha" operator="out"/>
<feColorMatrix type="matrix" values="0 0 0 0 0.803922 0 0 0 0 0.129412 0 0 0 0 0.027451 0 0 0 0.7 0"/>
<feBlend mode="normal" in2="BackgroundImageFix" result="effect1_dropShadow_2058_8633"/>
<feBlend mode="normal" in="SourceGraphic" in2="effect1_dropShadow_2058_8633" result="shape"/>
</filter>
<filter id="filter4_d_2058_8633" x="446.778" y="3.55273" width="112.077" height="90.2461" filterUnits="userSpaceOnUse" color-interpolation-filters="sRGB">
<feFlood flood-opacity="0" result="BackgroundImageFix"/>
<feColorMatrix in="SourceAlpha" type="matrix" values="0 0 0 0 0 0 0 0 0 0 0 0 0 0 0 0 0 0 127 0" result="hardAlpha"/>
<feOffset dx="4" dy="4"/>
<feGaussianBlur stdDeviation="2"/>
<feComposite in2="hardAlpha" operator="out"/>
<feColorMatrix type="matrix" values="0 0 0 0 0.803922 0 0 0 0 0.129412 0 0 0 0 0.027451 0 0 0 0.7 0"/>
<feBlend mode="normal" in2="BackgroundImageFix" result="effect1_dropShadow_2058_8633"/>
<feBlend mode="normal" in="SourceGraphic" in2="effect1_dropShadow_2058_8633" result="shape"/>
</filter>
<filter id="filter5_d_2058_8633" x="563.209" y="4.73828" width="108.185" height="89.0615" filterUnits="userSpaceOnUse" color-interpolation-filters="sRGB">
<feFlood flood-opacity="0" result="BackgroundImageFix"/>
<feColorMatrix in="SourceAlpha" type="matrix" values="0 0 0 0 0 0 0 0 0 0 0 0 0 0 0 0 0 0 127 0" result="hardAlpha"/>
<feOffset dx="4" dy="4"/>
<feGaussianBlur stdDeviation="2"/>
<feComposite in2="hardAlpha" operator="out"/>
<feColorMatrix type="matrix" values="0 0 0 0 0.803922 0 0 0 0 0.129412 0 0 0 0 0.027451 0 0 0 0.7 0"/>
<feBlend mode="normal" in2="BackgroundImageFix" result="effect1_dropShadow_2058_8633"/>
<feBlend mode="normal" in="SourceGraphic" in2="effect1_dropShadow_2058_8633" result="shape"/>
</filter>
<filter id="filter6_d_2058_8633" x="675.578" y="0" width="84.323" height="96" filterUnits="userSpaceOnUse" color-interpolation-filters="sRGB">
<feFlood flood-opacity="0" result="BackgroundImageFix"/>
<feColorMatrix in="SourceAlpha" type="matrix" values="0 0 0 0 0 0 0 0 0 0 0 0 0 0 0 0 0 0 127 0" result="hardAlpha"/>
<feOffset dx="4" dy="4"/>
<feGaussianBlur stdDeviation="2"/>
<feComposite in2="hardAlpha" operator="out"/>
<feColorMatrix type="matrix" values="0 0 0 0 0.803922 0 0 0 0 0.129412 0 0 0 0 0.027451 0 0 0 0.7 0"/>
<feBlend mode="normal" in2="BackgroundImageFix" result="effect1_dropShadow_2058_8633"/>
<feBlend mode="normal" in="SourceGraphic" in2="effect1_dropShadow_2058_8633" result="shape"/>
</filter>
<filter id="filter7_i_2058_8633" x="0" y="110" width="858.018" height="109" filterUnits="userSpaceOnUse" color-interpolation-filters="sRGB">
<feFlood flood-opacity="0" result="BackgroundImageFix"/>
<feBlend mode="normal" in="SourceGraphic" in2="BackgroundImageFix" result="shape"/>
<feColorMatrix in="SourceAlpha" type="matrix" values="0 0 0 0 0 0 0 0 0 0 0 0 0 0 0 0 0 0 127 0" result="hardAlpha"/>
<feOffset dx="4" dy="4"/>
<feComposite in2="hardAlpha" operator="arithmetic" k2="-1" k3="1"/>
<feColorMatrix type="matrix" values="0 0 0 0 0.952941 0 0 0 0 0.956863 0 0 0 0 0.964706 0 0 0 1 0"/>
<feBlend mode="normal" in2="shape" result="effect1_innerShadow_2058_8633"/>
</filter>
<filter id="filter8_d_2058_8633" x="0" y="112.081" width="129.184" height="100.914" filterUnits="userSpaceOnUse" color-interpolation-filters="sRGB">
<feFlood flood-opacity="0" result="BackgroundImageFix"/>
<feColorMatrix in="SourceAlpha" type="matrix" values="0 0 0 0 0 0 0 0 0 0 0 0 0 0 0 0 0 0 127 0" result="hardAlpha"/>
<feOffset dx="4" dy="4"/>
<feGaussianBlur stdDeviation="2"/>
<feComposite in2="hardAlpha" operator="out"/>
<feColorMatrix type="matrix" values="0 0 0 0 0.803922 0 0 0 0 0.129412 0 0 0 0 0.027451 0 0 0 0.7 0"/>
<feBlend mode="normal" in2="BackgroundImageFix" result="effect1_dropShadow_2058_8633"/>
<feBlend mode="normal" in="SourceGraphic" in2="effect1_dropShadow_2058_8633" result="shape"/>
</filter>
<filter id="filter9_d_2058_8633" x="128.817" y="111.324" width="131.855" height="102.05" filterUnits="userSpaceOnUse" color-interpolation-filters="sRGB">
<feFlood flood-opacity="0" result="BackgroundImageFix"/>
<feColorMatrix in="SourceAlpha" type="matrix" values="0 0 0 0 0 0 0 0 0 0 0 0 0 0 0 0 0 0 127 0" result="hardAlpha"/>
<feOffset dx="4" dy="4"/>
<feGaussianBlur stdDeviation="2"/>
<feComposite in2="hardAlpha" operator="out"/>
<feColorMatrix type="matrix" values="0 0 0 0 0.803922 0 0 0 0 0.129412 0 0 0 0 0.027451 0 0 0 0.7 0"/>
<feBlend mode="normal" in2="BackgroundImageFix" result="effect1_dropShadow_2058_8633"/>
<feBlend mode="normal" in="SourceGraphic" in2="effect1_dropShadow_2058_8633" result="shape"/>
</filter>
<filter id="filter10_d_2058_8633" x="262.787" y="113.405" width="120.214" height="98.2646" filterUnits="userSpaceOnUse" color-interpolation-filters="sRGB">
<feFlood flood-opacity="0" result="BackgroundImageFix"/>
<feColorMatrix in="SourceAlpha" type="matrix" values="0 0 0 0 0 0 0 0 0 0 0 0 0 0 0 0 0 0 127 0" result="hardAlpha"/>
<feOffset dx="4" dy="4"/>
<feGaussianBlur stdDeviation="2"/>
<feComposite in2="hardAlpha" operator="out"/>
<feColorMatrix type="matrix" values="0 0 0 0 0.803922 0 0 0 0 0.129412 0 0 0 0 0.027451 0 0 0 0.7 0"/>
<feBlend mode="normal" in2="BackgroundImageFix" result="effect1_dropShadow_2058_8633"/>
<feBlend mode="normal" in="SourceGraphic" in2="effect1_dropShadow_2058_8633" result="shape"/>
</filter>
<filter id="filter11_d_2058_8633" x="389.696" y="179.828" width="33.9543" height="47.1719" filterUnits="userSpaceOnUse" color-interpolation-filters="sRGB">
<feFlood flood-opacity="0" result="BackgroundImageFix"/>
<feColorMatrix in="SourceAlpha" type="matrix" values="0 0 0 0 0 0 0 0 0 0 0 0 0 0 0 0 0 0 127 0" result="hardAlpha"/>
<feOffset dx="4" dy="4"/>
<feGaussianBlur stdDeviation="2"/>
<feComposite in2="hardAlpha" operator="out"/>
<feColorMatrix type="matrix" values="0 0 0 0 0.803922 0 0 0 0 0.129412 0 0 0 0 0.027451 0 0 0 0.7 0"/>
<feBlend mode="normal" in2="BackgroundImageFix" result="effect1_dropShadow_2058_8633"/>
<feBlend mode="normal" in="SourceGraphic" in2="effect1_dropShadow_2058_8633" result="shape"/>
</filter>
<filter id="filter12_d_2058_8633" x="425.001" y="111.324" width="130.901" height="103.563" filterUnits="userSpaceOnUse" color-interpolation-filters="sRGB">
<feFlood flood-opacity="0" result="BackgroundImageFix"/>
<feColorMatrix in="SourceAlpha" type="matrix" values="0 0 0 0 0 0 0 0 0 0 0 0 0 0 0 0 0 0 127 0" result="hardAlpha"/>
<feOffset dx="4" dy="4"/>
<feGaussianBlur stdDeviation="2"/>
<feComposite in2="hardAlpha" operator="out"/>
<feColorMatrix type="matrix" values="0 0 0 0 0.803922 0 0 0 0 0.129412 0 0 0 0 0.027451 0 0 0 0.7 0"/>
<feBlend mode="normal" in2="BackgroundImageFix" result="effect1_dropShadow_2058_8633"/>
<feBlend mode="normal" in="SourceGraphic" in2="effect1_dropShadow_2058_8633" result="shape"/>
</filter>
<filter id="filter13_d_2058_8633" x="553.437" y="111.513" width="128.993" height="101.482" filterUnits="userSpaceOnUse" color-interpolation-filters="sRGB">
<feFlood flood-opacity="0" result="BackgroundImageFix"/>
<feColorMatrix in="SourceAlpha" type="matrix" values="0 0 0 0 0 0 0 0 0 0 0 0 0 0 0 0 0 0 127 0" result="hardAlpha"/>
<feOffset dx="4" dy="4"/>
<feGaussianBlur stdDeviation="2"/>
<feComposite in2="hardAlpha" operator="out"/>
<feColorMatrix type="matrix" values="0 0 0 0 0.803922 0 0 0 0 0.129412 0 0 0 0 0.027451 0 0 0 0.7 0"/>
<feBlend mode="normal" in2="BackgroundImageFix" result="effect1_dropShadow_2058_8633"/>
<feBlend mode="normal" in="SourceGraphic" in2="effect1_dropShadow_2058_8633" result="shape"/>
</filter>
<filter id="filter14_d_2058_8633" x="682.636" y="111.324" width="129.184" height="100.347" filterUnits="userSpaceOnUse" color-interpolation-filters="sRGB">
<feFlood flood-opacity="0" result="BackgroundImageFix"/>
<feColorMatrix in="SourceAlpha" type="matrix" values="0 0 0 0 0 0 0 0 0 0 0 0 0 0 0 0 0 0 127 0" result="hardAlpha"/>
<feOffset dx="4" dy="4"/>
<feGaussianBlur stdDeviation="2"/>
<feComposite in2="hardAlpha" operator="out"/>
<feColorMatrix type="matrix" values="0 0 0 0 0.803922 0 0 0 0 0.129412 0 0 0 0 0.027451 0 0 0 0.7 0"/>
<feBlend mode="normal" in2="BackgroundImageFix" result="effect1_dropShadow_2058_8633"/>
<feBlend mode="normal" in="SourceGraphic" in2="effect1_dropShadow_2058_8633" result="shape"/>
</filter>
<filter id="filter15_d_2058_8633" x="827.675" y="110" width="38.3435" height="104.889" filterUnits="userSpaceOnUse" color-interpolation-filters="sRGB">
<feFlood flood-opacity="0" result="BackgroundImageFix"/>
<feColorMatrix in="SourceAlpha" type="matrix" values="0 0 0 0 0 0 0 0 0 0 0 0 0 0 0 0 0 0 127 0" result="hardAlpha"/>
<feOffset dx="4" dy="4"/>
<feGaussianBlur stdDeviation="2"/>
<feComposite in2="hardAlpha" operator="out"/>
<feColorMatrix type="matrix" values="0 0 0 0 0.803922 0 0 0 0 0.129412 0 0 0 0 0.027451 0 0 0 0.7 0"/>
<feBlend mode="normal" in2="BackgroundImageFix" result="effect1_dropShadow_2058_8633"/>
<feBlend mode="normal" in="SourceGraphic" in2="effect1_dropShadow_2058_8633" result="shape"/>
</filter>
<linearGradient id="paint0_linear_2058_8633" x1="157.986" y1="2.2002" x2="157.986" y2="86.4771" gradientUnits="userSpaceOnUse">
<stop offset="0.270833" stop-color="white"/>
<stop offset="1" stop-color="#BDD6FF"/>
</linearGradient>
<linearGradient id="paint1_linear_2058_8633" x1="269.848" y1="1.52246" x2="269.848" y2="86.4763" gradientUnits="userSpaceOnUse">
<stop offset="0.270833" stop-color="white"/>
<stop offset="1" stop-color="#BDD6FF"/>
</linearGradient>
<linearGradient id="paint2_linear_2058_8633" x1="383.824" y1="2.87695" x2="383.824" y2="87.1539" gradientUnits="userSpaceOnUse">
<stop offset="0.270833" stop-color="white"/>
<stop offset="1" stop-color="#BDD6FF"/>
</linearGradient>
<linearGradient id="paint3_linear_2058_8633" x1="498.817" y1="3.55273" x2="498.817" y2="85.7989" gradientUnits="userSpaceOnUse">
<stop offset="0.270833" stop-color="white"/>
<stop offset="1" stop-color="#BDD6FF"/>
</linearGradient>
<linearGradient id="paint4_linear_2058_8633" x1="613.301" y1="4.73828" x2="613.301" y2="85.7998" gradientUnits="userSpaceOnUse">
<stop offset="0.270833" stop-color="white"/>
<stop offset="1" stop-color="#BDD6FF"/>
</linearGradient>
<linearGradient id="paint5_linear_2058_8633" x1="713.74" y1="0" x2="713.74" y2="88" gradientUnits="userSpaceOnUse">
<stop offset="0.270833" stop-color="white"/>
<stop offset="1" stop-color="#BDD6FF"/>
</linearGradient>
<linearGradient id="paint6_linear_2058_8633" x1="60.5918" y1="112.081" x2="60.5918" y2="204.995" gradientUnits="userSpaceOnUse">
<stop offset="0.270833" stop-color="white"/>
<stop offset="1" stop-color="#BDD6FF"/>
</linearGradient>
<linearGradient id="paint7_linear_2058_8633" x1="190.745" y1="111.324" x2="190.745" y2="205.374" gradientUnits="userSpaceOnUse">
<stop offset="0.270833" stop-color="white"/>
<stop offset="1" stop-color="#BDD6FF"/>
</linearGradient>
<linearGradient id="paint8_linear_2058_8633" x1="318.894" y1="113.405" x2="318.894" y2="203.67" gradientUnits="userSpaceOnUse">
<stop offset="0.270833" stop-color="white"/>
<stop offset="1" stop-color="#BDD6FF"/>
</linearGradient>
<linearGradient id="paint9_linear_2058_8633" x1="402.673" y1="179.828" x2="402.673" y2="219" gradientUnits="userSpaceOnUse">
<stop offset="0.270833" stop-color="white"/>
<stop offset="1" stop-color="#BDD6FF"/>
</linearGradient>
<linearGradient id="paint10_linear_2058_8633" x1="486.452" y1="111.324" x2="486.452" y2="206.888" gradientUnits="userSpaceOnUse">
<stop offset="0.270833" stop-color="white"/>
<stop offset="1" stop-color="#BDD6FF"/>
</linearGradient>
<linearGradient id="paint11_linear_2058_8633" x1="613.933" y1="111.513" x2="613.933" y2="204.995" gradientUnits="userSpaceOnUse">
<stop offset="0.270833" stop-color="white"/>
<stop offset="1" stop-color="#BDD6FF"/>
</linearGradient>
<linearGradient id="paint12_linear_2058_8633" x1="743.228" y1="111.324" x2="743.228" y2="203.671" gradientUnits="userSpaceOnUse">
<stop offset="0.270833" stop-color="white"/>
<stop offset="1" stop-color="#BDD6FF"/>
</linearGradient>
<linearGradient id="paint13_linear_2058_8633" x1="842.846" y1="110" x2="842.846" y2="206.888" gradientUnits="userSpaceOnUse">
<stop offset="0.270833" stop-color="white"/>
<stop offset="1" stop-color="#BDD6FF"/>
</linearGradient>
</defs>
</svg>
