<svg width="20" height="20" viewBox="0 0 20 20" fill="none" xmlns="http://www.w3.org/2000/svg">
<path d="M17.3908 18.3822C17.0083 18.7712 16.4896 18.9897 15.9487 18.9897C15.4078 18.9897 14.8891 18.7712 14.5066 18.3822L10.0009 13.1444L5.49513 18.3804C5.30631 18.5756 5.08136 18.7309 4.83325 18.8372C4.58514 18.9435 4.31879 18.9989 4.04956 19C3.78033 19.0011 3.51354 18.948 3.26459 18.8437C3.01564 18.7394 2.78945 18.5861 2.59907 18.3924C2.40869 18.1988 2.25789 17.9688 2.15537 17.7156C2.05284 17.4624 2.00062 17.191 2.00172 16.9172C2.00281 16.6434 2.0572 16.3725 2.16175 16.1201C2.2663 15.8678 2.41894 15.639 2.61086 15.4469L7.29844 10.0017L2.60916 4.55306C2.41724 4.36102 2.2646 4.13222 2.16005 3.87988C2.0555 3.62754 2.00111 3.35664 2.00002 3.08281C1.99892 2.80898 2.05114 2.53764 2.15367 2.28444C2.25619 2.03124 2.40699 1.8012 2.59737 1.60757C2.78775 1.41394 3.01394 1.26057 3.26289 1.15629C3.51184 1.05201 3.77863 0.998902 4.04786 1.00002C4.31709 1.00113 4.58345 1.05645 4.83155 1.16279C5.07966 1.26912 5.30461 1.42436 5.49343 1.61956L10.0009 6.85906L14.5066 1.61956C14.6954 1.42436 14.9203 1.26912 15.1684 1.16279C15.4166 1.05645 15.6829 1.00113 15.9521 1.00002C16.2214 0.998902 16.4882 1.05201 16.7371 1.15629C16.9861 1.26057 17.2122 1.41394 17.4026 1.60757C17.593 1.8012 17.7438 2.03124 17.8463 2.28444C17.9489 2.53764 18.0011 2.80898 18 3.08281C17.9989 3.35664 17.9445 3.62754 17.8399 3.87988C17.7354 4.13222 17.5828 4.36102 17.3908 4.55306L12.7033 10.0017L17.3908 15.4469C17.5805 15.6396 17.7309 15.8684 17.8335 16.1202C17.9362 16.372 17.989 16.642 17.989 16.9146C17.989 17.1872 17.9362 17.4571 17.8335 17.7089C17.7309 17.9607 17.5805 18.1895 17.3908 18.3822Z" fill="#CD2107"/>
</svg>
