<svg width="16" height="16" viewBox="0 0 16 16" fill="none" xmlns="http://www.w3.org/2000/svg">
<path d="M3.69132 14.5907C3.79916 14.6468 3.92025 14.6725 4.04157 14.665C4.1629 14.6575 4.27989 14.617 4.37998 14.5481L13.0467 8.54806C13.1352 8.4867 13.2076 8.4048 13.2576 8.30936C13.3075 8.21392 13.3337 8.10779 13.3337 8.00006C13.3337 7.89232 13.3075 7.78619 13.2576 7.69075C13.2076 7.59532 13.1352 7.51341 13.0467 7.45206L4.37998 1.45206C4.27997 1.38286 4.16292 1.34233 4.04153 1.33487C3.92013 1.32742 3.79901 1.35331 3.69127 1.40975C3.58354 1.4662 3.49329 1.55104 3.43032 1.65509C3.36734 1.75914 3.33403 1.87843 3.33398 2.00006V14.0001C3.33396 14.1217 3.36725 14.2411 3.43024 14.3452C3.49323 14.4494 3.58352 14.5343 3.69132 14.5907Z" fill="#060E31"/>
</svg>
