<svg width="20" height="20" viewBox="0 0 20 20" fill="none" xmlns="http://www.w3.org/2000/svg">
<g clip-path="url(#clip0_657_5510)">
<path d="M10.0002 6.7456C8.20825 6.7456 6.74584 8.208 6.74584 9.99999C6.74584 11.792 8.20825 13.2544 10.0002 13.2544C11.7922 13.2544 13.2546 11.792 13.2546 9.99999C13.2546 8.208 11.7922 6.7456 10.0002 6.7456ZM19.761 9.99999C19.761 8.65234 19.7732 7.31689 19.6975 5.97167C19.6218 4.40917 19.2654 3.02245 18.1228 1.87988C16.9778 0.734857 15.5935 0.380853 14.031 0.30517C12.6833 0.229486 11.3479 0.241693 10.0027 0.241693C8.65502 0.241693 7.31957 0.229486 5.97436 0.30517C4.41186 0.380853 3.02514 0.737298 1.88256 1.87988C0.737543 3.0249 0.383539 4.40917 0.307855 5.97167C0.232171 7.31933 0.244379 8.65478 0.244379 9.99999C0.244379 11.3452 0.232171 12.6831 0.307855 14.0283C0.383539 15.5908 0.739984 16.9775 1.88256 18.1201C3.02758 19.2651 4.41186 19.6191 5.97436 19.6948C7.32202 19.7705 8.65746 19.7583 10.0027 19.7583C11.3503 19.7583 12.6858 19.7705 14.031 19.6948C15.5935 19.6191 16.9802 19.2627 18.1228 18.1201C19.2678 16.9751 19.6218 15.5908 19.6975 14.0283C19.7756 12.6831 19.761 11.3477 19.761 9.99999ZM10.0002 15.0073C7.22924 15.0073 4.99291 12.771 4.99291 9.99999C4.99291 7.229 7.22924 4.99267 10.0002 4.99267C12.7712 4.99267 15.0076 7.229 15.0076 9.99999C15.0076 12.771 12.7712 15.0073 10.0002 15.0073ZM15.2126 5.95703C14.5657 5.95703 14.0432 5.43456 14.0432 4.78759C14.0432 4.14062 14.5657 3.61816 15.2126 3.61816C15.8596 3.61816 16.3821 4.14062 16.3821 4.78759C16.3823 4.94122 16.3521 5.09337 16.2934 5.23534C16.2347 5.37731 16.1486 5.50631 16.04 5.61494C15.9314 5.72357 15.8024 5.8097 15.6604 5.8684C15.5184 5.9271 15.3663 5.95722 15.2126 5.95703Z" fill="#CD2107"/>
</g>
<defs>
<clipPath id="clip0_657_5510">
<rect width="20" height="20" fill="white"/>
</clipPath>
</defs>
</svg>
