<svg width="20" height="20" viewBox="0 0 20 20" fill="none" xmlns="http://www.w3.org/2000/svg">
<g clip-path="url(#clip0_657_5518)">
<path d="M12.7583 7.24186C15.0922 9.57815 15.0601 13.3238 12.7724 15.6243C12.7681 15.629 12.763 15.634 12.7583 15.6387L10.1333 18.2637C7.81807 20.579 4.05131 20.5787 1.73643 18.2637C-0.578809 15.9489 -0.578809 12.1817 1.73643 9.86686L3.18588 8.4174C3.57025 8.03303 4.23221 8.2885 4.25205 8.8317C4.27736 9.52396 4.4015 10.2195 4.63057 10.8911C4.70815 11.1185 4.65272 11.3701 4.48279 11.54L3.97158 12.0512C2.87682 13.146 2.84248 14.9286 3.92647 16.034C5.02115 17.1504 6.82045 17.157 7.92354 16.054L10.5485 13.4294C11.6497 12.3281 11.6451 10.5482 10.5485 9.45162C10.404 9.30732 10.2583 9.19522 10.1446 9.11689C10.0641 9.06164 9.99768 8.98833 9.95056 8.90284C9.90344 8.81734 9.87696 8.72202 9.87322 8.62447C9.85775 8.2117 10.004 7.78635 10.3302 7.46018L11.1526 6.63772C11.3683 6.42205 11.7066 6.39557 11.9567 6.5701C12.2431 6.77008 12.5113 6.99486 12.7583 7.24186ZM18.2636 1.73631C15.9487 -0.578613 12.1819 -0.578926 9.8667 1.73631L7.2417 4.36131C7.23701 4.366 7.23193 4.37107 7.22764 4.37576C4.9399 6.67623 4.90783 10.4219 7.2417 12.7582C7.48868 13.0052 7.75692 13.2299 8.0433 13.4299C8.29338 13.6044 8.63174 13.5779 8.84736 13.3623L9.66979 12.5398C9.99596 12.2137 10.1422 11.7883 10.1267 11.3755C10.123 11.278 10.0965 11.1827 10.0494 11.0972C10.0023 11.0117 9.93584 10.9384 9.85537 10.8831C9.74162 10.8048 9.596 10.6927 9.45143 10.5484C8.35483 9.45178 8.35022 7.67186 9.45143 6.57064L12.0764 3.94603C13.1795 2.84295 14.9788 2.84959 16.0735 3.96596C17.1575 5.07143 17.1232 6.854 16.0284 7.94877L15.5172 8.45998C15.3472 8.6299 15.2918 8.88146 15.3694 9.10889C15.5985 9.78053 15.7226 10.476 15.7479 11.1683C15.7678 11.7115 16.4297 11.967 16.8141 11.5826L18.2635 10.1331C20.5788 7.81834 20.5788 4.05115 18.2636 1.73631Z" fill="#CD2107"/>
</g>
<defs>
<clipPath id="clip0_657_5518">
<rect width="20" height="20" fill="white"/>
</clipPath>
</defs>
</svg>
