<svg width="20" height="20" viewBox="0 0 20 20" fill="none" xmlns="http://www.w3.org/2000/svg">
<path d="M12.2422 1.28513C13.2578 1.48826 13.918 2.47654 13.7148 3.49216L13.625 3.93748C13.418 4.98044 13.0352 5.97263 12.5 6.87498H18.125C19.1602 6.87498 20 7.71482 20 8.74998C20 9.73826 19.2383 10.5469 18.2695 10.6211C18.5703 10.9531 18.75 11.3945 18.75 11.875C18.75 12.789 18.0938 13.5508 17.2305 13.7148C17.4023 13.9961 17.5 14.332 17.5 14.6875C17.5 15.5195 16.957 16.2265 16.207 16.4687C16.2344 16.5976 16.25 16.7344 16.25 16.875C16.25 17.9101 15.4102 18.75 14.375 18.75H11.5039C10.7617 18.75 10.0391 18.5312 9.42188 18.1211L7.91797 17.1172C6.875 16.4219 6.25 15.25 6.25 13.9961V9.65232C6.25 8.51169 6.76953 7.43748 7.65625 6.72263L7.94531 6.49216C8.98047 5.66404 9.6875 4.49998 9.94531 3.2031L10.0352 2.75779C10.2383 1.74216 11.2266 1.08201 12.2422 1.28513ZM1.25 7.49998H3.75C4.44141 7.49998 5 8.05857 5 8.74998V17.5C5 18.1914 4.44141 18.75 3.75 18.75H1.25C0.558594 18.75 0 18.1914 0 17.5V8.74998C0 8.05857 0.558594 7.49998 1.25 7.49998Z" fill="white"/>
</svg>
