<svg width="28" height="28" viewBox="0 0 28 28" fill="none" xmlns="http://www.w3.org/2000/svg">
<rect width="28" height="28" rx="14" fill="white"/>
<path d="M14.7002 19.6875C16.39 19.6875 17.7627 21.0602 17.7627 22.75C17.7627 24.4398 16.39 25.8125 14.7002 25.8125C13.0104 25.8125 11.6377 24.4398 11.6377 22.75C11.6377 21.0602 13.0104 19.6875 14.7002 19.6875ZM14.7002 10.9375C16.39 10.9375 17.7627 12.3102 17.7627 14C17.7627 15.6898 16.39 17.0625 14.7002 17.0625C13.0104 17.0625 11.6377 15.6898 11.6377 14C11.6377 12.3102 13.0104 10.9375 14.7002 10.9375ZM17.7627 5.25C17.7627 6.93984 16.39 8.3125 14.7002 8.3125C13.0104 8.3125 11.6377 6.93984 11.6377 5.25C11.6377 3.56016 13.0104 2.1875 14.7002 2.1875C16.39 2.1875 17.7627 3.56016 17.7627 5.25Z" fill="#313752"/>
</svg>
