<svg width="20" height="20" viewBox="0 0 20 20" fill="none" xmlns="http://www.w3.org/2000/svg">
<g clip-path="url(#clip0_1633_3430)">
<path d="M14.9609 12.9427C14.9609 12.717 14.8785 12.5217 14.7135 12.3568L12.3568 10L14.7135 7.64323C14.8785 7.4783 14.9609 7.28299 14.9609 7.05729C14.9609 6.82292 14.8785 6.62326 14.7135 6.45833L13.5417 5.28646C13.3767 5.12153 13.1771 5.03906 12.9427 5.03906C12.717 5.03906 12.5217 5.12153 12.3568 5.28646L10 7.64323L7.64323 5.28646C7.4783 5.12153 7.28299 5.03906 7.05729 5.03906C6.82292 5.03906 6.62326 5.12153 6.45833 5.28646L5.28646 6.45833C5.12153 6.62326 5.03906 6.82292 5.03906 7.05729C5.03906 7.28299 5.12153 7.4783 5.28646 7.64323L7.64323 10L5.28646 12.3568C5.12153 12.5217 5.03906 12.717 5.03906 12.9427C5.03906 13.1771 5.12153 13.3767 5.28646 13.5417L6.45833 14.7135C6.62326 14.8785 6.82292 14.9609 7.05729 14.9609C7.28299 14.9609 7.4783 14.8785 7.64323 14.7135L10 12.3568L12.3568 14.7135C12.5217 14.8785 12.717 14.9609 12.9427 14.9609C13.1771 14.9609 13.3767 14.8785 13.5417 14.7135L14.7135 13.5417C14.8785 13.3767 14.9609 13.1771 14.9609 12.9427ZM20 10C20 11.8142 19.553 13.4874 18.6589 15.0195C17.7648 16.5516 16.5516 17.7648 15.0195 18.6589C13.4874 19.553 11.8142 20 10 20C8.18576 20 6.51259 19.553 4.98047 18.6589C3.44835 17.7648 2.23524 16.5516 1.34115 15.0195C0.447049 13.4874 0 11.8142 0 10C0 8.18576 0.447049 6.51259 1.34115 4.98047C2.23524 3.44835 3.44835 2.23524 4.98047 1.34115C6.51259 0.447049 8.18576 0 10 0C11.8142 0 13.4874 0.447049 15.0195 1.34115C16.5516 2.23524 17.7648 3.44835 18.6589 4.98047C19.553 6.51259 20 8.18576 20 10Z" fill="#CD2107"/>
</g>
<defs>
<clipPath id="clip0_1633_3430">
<rect width="20" height="20" fill="white"/>
</clipPath>
</defs>
</svg>
