<svg width="16" height="16" viewBox="0 0 16 16" fill="none" xmlns="http://www.w3.org/2000/svg">
<path d="M3.69034 14.5906C3.79818 14.6467 3.91927 14.6724 4.0406 14.6648C4.16192 14.6573 4.27891 14.6169 4.37901 14.5479L13.0457 8.54794C13.1342 8.48658 13.2066 8.40468 13.2566 8.30924C13.3066 8.2138 13.3327 8.10767 13.3327 7.99994C13.3327 7.8922 13.3066 7.78607 13.2566 7.69063C13.2066 7.59519 13.1342 7.51329 13.0457 7.45194L4.37901 1.45194C4.27899 1.38273 4.16195 1.34221 4.04055 1.33475C3.91915 1.32729 3.79803 1.35319 3.69029 1.40963C3.58256 1.46607 3.49232 1.55091 3.42934 1.65496C3.36636 1.75902 3.33305 1.87831 3.33301 1.99994V13.9999C3.33299 14.1216 3.36628 14.241 3.42927 14.3451C3.49226 14.4492 3.58254 14.5341 3.69034 14.5906Z" fill="#E3E3E4"/>
</svg>
