<svg width="20" height="20" viewBox="0 0 20 20" fill="none" xmlns="http://www.w3.org/2000/svg">
<g clip-path="url(#clip0_1633_5423)">
<path d="M15.7143 8.4013C18.0804 8.4013 20 6.57307 20 4.31967C20 2.06627 18.0804 0.238037 15.7143 0.238037C13.3482 0.238037 11.4286 2.06627 11.4286 4.31967C11.4286 4.48974 11.4375 4.65981 11.4598 4.82562L7.25893 6.82392C6.49107 6.11389 5.44196 5.68021 4.28571 5.68021C1.91964 5.68021 0 7.50845 0 9.76185C0 12.0152 1.91964 13.8435 4.28571 13.8435C5.44196 13.8435 6.49107 13.4098 7.25893 12.6998L11.4598 14.6981C11.4375 14.8639 11.4286 15.0297 11.4286 15.204C11.4286 17.4574 13.3482 19.2857 15.7143 19.2857C18.0804 19.2857 20 17.4574 20 15.204C20 12.9506 18.0804 11.1224 15.7143 11.1224C14.558 11.1224 13.5089 11.5561 12.7411 12.2661L8.54018 10.2678C8.5625 10.102 8.57143 9.93617 8.57143 9.76185C8.57143 9.58753 8.5625 9.42171 8.54018 9.2559L12.7411 7.2576C13.5089 7.96763 14.558 8.4013 15.7143 8.4013Z" fill="#CD2107"/>
</g>
<defs>
<clipPath id="clip0_1633_5423">
<rect width="20" height="20" fill="white"/>
</clipPath>
</defs>
</svg>
