<svg width="572" height="125" viewBox="0 0 572 125" fill="none" xmlns="http://www.w3.org/2000/svg">
<rect width="573" height="80" transform="matrix(0.996917 -0.0784591 0 1 0 44.9974)" fill="white"/>
<path d="M102.938 72.8801L107.639 72.51C107.173 75.8948 106.455 78.8673 105.414 81.5052C104.302 79.0007 103.476 76.1137 102.866 73.0297L102.938 72.8801ZM114.53 71.9677V68.0077L104.122 68.8268C104.625 66.9153 105.019 64.9042 105.342 62.8988L101 62.5566C100.138 68.4204 98.4875 74.0943 95.8676 77.9365V77.6485C95.9035 77.1417 95.9035 75.9177 95.9035 75.9177L88.7975 76.4769V72.9489L97.0878 72.2965V68.3365L89.264 68.9522L92.2069 67.8566C91.848 66.6248 91.1302 64.7013 90.4842 63.2762L86.7159 64.4727C87.2542 65.8704 87.9002 67.6915 88.1873 69.0369L81.2608 69.5821V73.5421L84.7779 73.2653V80.2133C84.7779 84.8573 84.2395 90.0476 80.3994 94.8139C81.4402 95.452 82.8399 96.4938 83.5218 97.3761C87.972 92.0939 88.7616 86.0557 88.7975 80.3649L91.8121 80.1277C91.6686 88.563 91.4532 91.6039 90.9867 92.4326C90.6996 92.8872 90.4125 93.0178 89.9818 93.0517C89.4076 93.0969 88.3668 93.1428 87.2183 93.1612C87.8284 94.1932 88.2232 95.7821 88.3309 96.9616C89.8382 96.879 91.2379 96.7329 92.171 96.5154C93.2118 96.2175 93.8578 95.8067 94.5756 94.7422C95.4728 93.4476 95.6523 89.5454 95.8317 79.5233C96.7648 80.3499 97.8415 81.4531 98.3439 82.0976C99.0617 81.1411 99.7077 80.1543 100.318 78.9902C101.072 81.6309 101.897 84.05 103.01 86.1944C101.143 88.9333 98.631 91.183 95.3293 92.9549C96.1188 93.7927 97.339 95.6047 97.6979 96.5124C100.856 94.6439 103.333 92.433 105.306 89.8296C107.101 92.1004 109.29 93.8721 112.018 95.0975C112.664 93.8946 113.992 92.1341 114.961 91.1938C111.982 90.0603 109.685 88.225 107.89 85.7743C109.828 81.9857 111.085 77.4589 111.838 72.1796L114.53 71.9677ZM131.075 63.6816C134.412 65.6869 138.827 68.7595 140.765 70.803L143.923 67.2064C141.77 65.1439 137.212 62.3346 133.982 60.5368L131.075 63.6816ZM145.646 71.8949C147.512 75.96 149.378 81.5011 149.916 85.1308L154.259 82.989C153.505 79.3403 151.639 74.0872 149.629 69.9613L145.646 71.8949ZM123.394 73.1781C122.928 78.0028 121.887 83.4847 120.631 87.3996L124.938 88.7886C126.158 84.6246 127.055 78.326 127.558 73.6424L123.394 73.1781ZM129.854 70.5457V87.2497C129.854 91.7857 131.147 93.124 135.812 92.7568L141.806 92.2851C146.184 91.9405 147.332 89.7261 147.835 82.8466C146.651 82.6518 144.82 82.0398 143.815 81.3629C143.564 86.9987 143.241 88.1761 141.447 88.3173L136.315 88.7212C134.592 88.8568 134.305 88.5914 134.305 86.8994V70.1954L129.854 70.5457ZM187.815 66.308C186.451 68.4314 184.298 71.0129 182.396 73.1066C180.889 71.0292 179.704 68.7824 178.771 66.4438V66.0118L192.589 64.9244V60.7844L188.677 61.0923L190.256 59.204C188.712 58.1734 185.734 56.7879 183.616 55.9825L181.068 58.8831C182.611 59.5536 184.442 60.4536 185.913 61.3097L178.771 61.8718V56.5078L174.393 56.8524V62.2164L160.899 63.2784V67.4184L174.393 66.3564V75.0324C169.081 78.5105 163.267 82.172 159.822 84.2072L162.549 87.8805C166.031 85.5185 170.301 82.5184 174.393 79.5324V85.0764C174.393 85.7604 174.142 85.9962 173.46 86.0499C172.742 86.1064 170.481 86.3203 168.328 86.3818C168.974 87.5909 169.584 89.5589 169.763 90.7688C172.957 90.5534 175.29 90.2258 176.761 89.354C178.269 88.5154 178.771 87.3238 178.771 84.7678V74.9038C181.678 79.895 185.518 83.8048 190.471 86.007C191.189 84.7265 192.589 82.8884 193.629 81.9065C190.256 80.696 187.277 78.6264 184.765 76.0521C186.954 73.9358 189.502 71.1433 191.584 68.6395L187.815 66.308ZM171.306 74.4473C170.158 72.5937 167.502 70.1027 165.385 68.3974L162.119 70.9224C164.272 72.7689 166.784 75.4152 167.825 77.3133L171.306 74.4473ZM231.959 60.8899C231.564 59.2289 230.487 56.5777 229.482 54.6048L226.504 55.8472C227.437 57.8978 228.406 60.6655 228.765 62.2933L231.959 60.8899ZM222.053 56.4854L218.716 56.7481C218.357 55.6964 217.926 54.4703 217.531 53.4933L214.05 54.3793C214.337 55.1847 214.66 56.1313 214.911 57.0475L211.466 57.3187V60.5947L222.053 59.7615V56.4854ZM206.657 63.2052L204.145 63.4029V59.5869L206.657 59.3892V63.2052ZM204.145 78.5949V74.2029L206.657 74.0052V77.9652L204.145 78.5949ZM206.657 70.5132L204.145 70.7109V66.8949L206.657 66.6972V70.5132ZM211.035 59.0446V55.2286L199.551 56.1324V59.9484L201.058 59.8298V79.3778C200.412 79.5366 199.802 79.6927 199.264 79.807L199.982 83.3145C202.027 82.7215 204.324 82.0728 206.657 81.4212V87.9012L209.815 87.6526V59.1406L211.035 59.0446ZM215.127 79.2786V76.9746L218.5 76.7091V79.0131L215.127 79.2786ZM218.5 71.6331V73.8651L215.127 74.1306V71.8986L218.5 71.6331ZM229.518 67.6699C228.944 69.6591 228.226 71.5876 227.329 73.3502C227.114 71.4232 226.934 69.2413 226.791 66.8406L232.712 66.3746V62.7746L226.611 63.2547C226.468 59.954 226.396 56.3957 226.396 52.7237L222.771 53.009C222.843 56.7473 222.915 60.2697 223.058 63.5344L220.367 63.7462C220.654 62.7156 221.013 61.5354 221.372 60.3191L218.142 60.1053C218.034 61.1938 217.711 62.7312 217.388 63.9806L215.45 64.1332C215.306 62.9925 214.983 61.5419 214.624 60.4181L211.717 61.1149C212.004 62.1363 212.256 63.3045 212.399 64.3732L210.748 64.5032V68.1032L223.238 67.1202C223.489 71.3845 223.884 75.0974 224.458 78.0402C223.561 79.2268 222.628 80.3083 221.623 81.2873V68.5433L211.897 69.3088V84.9688L215.127 84.7146V82.0866L218.5 81.8211V82.6851L220.331 82.541C219.541 83.2512 218.716 83.8561 217.89 84.4251C218.716 84.9721 219.792 85.9674 220.259 86.6147C222.089 85.3546 223.776 83.8179 225.427 82.0319C226.36 84.6225 227.616 86.0716 229.303 85.9749C230.595 85.8732 232.138 84.4918 233 79.024C232.425 78.6732 230.99 77.6701 230.451 76.8845C230.272 79.6346 229.913 81.2469 229.482 81.2808C228.98 81.2843 228.513 80.313 228.155 78.5413C230.021 75.8024 231.636 72.5793 232.748 69.0717L229.518 67.6699ZM240.608 82.0612L256.579 80.8043V76.5203L251.59 76.9129V54.5209L247.678 54.8287C245.991 56.0415 244.161 56.8695 241.505 57.5826V60.8586L246.314 60.4801V77.3281L240.608 77.7772V82.0612ZM265.331 80.1154L281.301 78.8585V74.5745L276.313 74.9671V52.5751L272.401 52.883C270.714 54.0958 268.884 54.9238 266.228 55.6368V58.9128L271.037 58.5343V75.3823L265.331 75.8314V80.1154ZM290.054 78.1697L306.024 76.9128V72.6288L301.036 73.0214V50.6294L297.124 50.9373C295.437 52.15 293.607 52.9781 290.951 53.6911V56.9671L295.76 56.5886V73.4366L290.054 73.8857V78.1697ZM314.776 76.224L330.747 74.9671V70.6831L325.758 71.0757V48.6837L321.846 48.9916C320.16 50.2043 318.329 51.0324 315.674 51.7454V55.0214L320.483 54.6429V71.4909L314.776 71.94V76.224ZM364.155 46.8498L359.992 47.1775V45.6295L364.155 45.3018V46.8498ZM368.139 42.7923L356.295 43.7244V49.6644L368.139 48.7323V42.7923ZM349.871 47.974L345.816 48.2932V46.7452L349.871 46.426V47.974ZM353.819 43.9193L342.083 44.8429V50.7829L353.819 49.8593V43.9193ZM344.093 55.2327L370.507 53.1539V49.6619L340.181 52.0486V60.3286C340.181 64.7206 339.966 70.7856 337.346 75.2757C338.243 75.6011 339.93 76.7644 340.576 77.4335C343.555 72.4831 344.093 65.0607 344.093 60.0567V55.2327ZM356.295 64.2084C357.085 64.6863 358.449 65.8389 359.023 66.4417C359.382 65.9815 359.741 65.4852 360.064 64.9558C360.602 66.2815 361.212 67.4934 361.894 68.6638C360.458 70.5047 358.592 71.9836 356.295 73.2084V64.2084ZM349.046 71.6189V69.7469L352.814 69.4504V70.9624L349.046 71.6189ZM352.814 62.2864V63.7624L349.046 64.0589V62.5829L352.814 62.2864ZM349.046 66.1109L352.814 65.8144V67.3624L349.046 67.6589V66.1109ZM365.519 60.0625C365.16 61.9627 364.657 63.6583 363.94 65.1908C363.15 63.8849 362.54 62.3849 362.037 60.8405L362.253 60.3195L365.519 60.0625ZM370.543 59.6671V56.3911L363.222 56.9673C363.437 56.2303 363.581 55.463 363.724 54.6957L360.135 54.3302C359.561 58.0474 358.269 61.713 356.295 64.1364V62.0124L357.48 61.9192V59.2192L352.778 59.5892V58.2572L357.049 57.9211V55.3291L345.241 56.2583V58.8503L349.189 58.5397V59.8717L344.488 60.2417V62.9417L345.636 62.8513V72.1753L343.232 72.5445L343.698 75.6038C346.282 75.1484 349.512 74.4982 352.814 73.8424V76.3624L356.295 76.0884V73.2444C357.049 73.8691 358.305 75.2462 358.736 75.9683C360.817 74.7245 362.576 73.2901 364.047 71.5903C365.447 73.1361 367.134 74.3714 369.072 75.2269C369.646 74.1377 370.794 72.5713 371.656 71.7115C369.61 71.0085 367.816 69.8537 366.344 68.3135C367.708 65.9022 368.713 63.0511 369.359 59.7603L370.543 59.6671ZM396.204 59.5195C397.675 58.5397 399.039 57.4604 400.331 56.2427C401.623 57.221 403.059 58.116 404.638 58.8558L396.204 59.5195ZM396.419 67.9986V63.1026L403.92 62.5122V67.4082L396.419 67.9986ZM390.749 57.0328C390.139 56.2529 387.447 53.2607 386.478 52.293V51.429L389.528 51.1889C390.462 51.8714 391.574 52.7919 392.112 53.3255C393.01 52.4629 393.907 51.4563 394.768 50.3445C395.558 51.4704 396.455 52.5877 397.46 53.6607C395.127 55.7883 392.4 57.5149 389.528 58.8209L390.749 57.0328ZM403.238 46.1859C402.413 47.8349 401.372 49.3928 400.187 50.818C398.931 49.6209 397.926 48.3319 397.101 47.0289L397.352 46.6491L403.238 46.1859ZM405.93 42.1941L405.212 42.3946L399.434 42.8493C399.864 41.9154 400.259 40.9843 400.618 40.0561L396.563 39.2593C395.271 42.817 393.046 46.4121 390.497 49.0966V47.1526L386.478 47.469V40.089L382.458 40.4053V47.7853L377.757 48.1553V52.1153L382.135 51.7707C381.13 56.1338 379.085 61.2628 376.895 64.2791C377.541 65.2723 378.475 66.8548 378.869 68.0118C380.233 66.0684 381.453 63.3084 382.458 60.3493V73.9933L386.478 73.677V57.081C387.267 58.2788 388.021 59.5515 388.452 60.4176L388.775 59.9242C389.457 60.7345 390.21 61.8272 390.605 62.6241C391.215 62.3601 391.825 62.0601 392.435 61.7241V73.2441L396.419 72.9306V71.6706L403.92 71.0802V72.2322L408.047 71.9074V60.1714L408.693 60.3726C409.231 59.2862 410.416 57.501 411.277 56.6052C408.155 55.987 405.427 54.7976 403.166 53.2476C405.535 50.3971 407.401 47.0823 408.621 43.2422L405.93 42.1941ZM428.54 52.0786L425.059 53.2526V47.7806L428.36 47.5207V43.5607L425.059 43.8206V37.0526L420.86 37.3831V44.1511L417.019 44.4533V48.4133L420.86 48.1111V54.6631C419.209 55.153 417.701 55.6316 416.409 55.9853L417.45 60.0074C418.527 59.6347 419.639 59.2591 420.86 58.8391V66.4711C420.86 66.9031 420.68 67.0612 420.249 67.0951C419.855 67.1622 418.67 67.2554 417.522 67.2738C418.06 68.3474 418.563 70.0358 418.706 71.1045C420.931 70.9294 422.475 70.664 423.587 69.9284C424.7 69.1568 425.059 68.1206 425.059 66.1046V57.4286C426.422 56.9613 427.75 56.4608 429.078 55.9963L428.54 52.0786ZM437.333 41.9906V51.5306L434.282 51.7707V42.2307L437.333 41.9906ZM444.403 50.9742L441.28 51.2199V41.6799L444.403 41.4342V50.9742ZM436.83 64.8542C434.605 65.0293 434.282 64.7307 434.282 62.5347V55.8387L444.403 55.0422V57.3102L448.889 56.9571V36.8691L429.832 38.3689V62.8489C429.832 68.2129 431.411 69.4207 436.328 69.0337L444.152 68.418C448.638 68.0649 450.037 65.9747 450.612 60.5295C449.355 60.3404 447.525 59.7644 446.484 59.1264C446.161 63.1838 445.767 64.1508 443.793 64.3062L436.83 64.8542ZM461.952 42.681L467.695 42.2291V43.8851L461.952 44.337V42.681ZM467.695 37.9451V39.6371L461.952 40.089V38.397L467.695 37.9451ZM469.346 52.5391C469.489 52.8878 469.669 53.2697 469.776 53.6572L467.551 54.0484C469.202 52.7304 470.817 51.0913 472.217 49.5052L470.135 48.229C469.705 48.8029 469.274 49.3768 468.807 49.9535L466.941 50.1724C467.838 49.3458 468.7 48.342 469.417 47.3495L468.09 46.734L471.714 46.4487V34.7487L457.861 35.839V68.095L461.952 67.773V47.217L466.69 46.8441C465.972 48.1606 464.931 49.2505 464.572 49.5668C464.213 49.991 463.783 50.2049 463.388 50.308C463.711 50.9666 464.106 52.1595 464.249 52.6882V52.7242C464.572 52.5548 465.111 52.3684 466.797 52.0917C466.116 52.7933 465.541 53.3065 465.254 53.5451C464.536 54.1416 463.89 54.5525 463.388 54.664C463.639 55.2922 463.998 56.488 464.106 56.9835V57.0195C464.68 56.7223 465.541 56.4745 470.458 55.4756C470.53 55.7939 470.602 56.1123 470.674 56.3586L469.094 56.4829V59.8669V60.1549L466.941 60.3244V57.2644L464.357 57.4677V62.9037L468.413 62.5846C467.838 63.4938 466.797 64.2957 464.931 64.9825C465.541 65.4745 466.439 66.5559 466.762 67.2145C471.284 65.2746 472.001 62.5541 472.001 59.7101V56.2541L471.463 56.2965L472.899 55.6795C472.612 54.6941 471.966 53.0889 471.391 51.8381L469.346 52.5391ZM481.512 56.1176L478.784 56.3323V59.3923L476.631 59.5618V55.8898L474.262 56.0762C474.98 55.8397 476.38 55.4775 480.076 54.7186C480.22 55.1393 480.364 55.56 480.471 55.8755L482.589 54.8809C482.266 53.9343 481.548 52.2988 480.902 51.0536L478.892 51.8598C479.072 52.2057 479.215 52.5904 479.359 52.9751L477.205 53.3606C478.82 51.9735 480.399 50.3372 481.835 48.7122L479.753 47.4C479.323 48.0099 478.856 48.6226 478.318 49.241L476.559 49.4514C477.421 48.6276 478.246 47.6266 478.964 46.6342L477.528 45.9911L484.06 45.4771V61.0651C484.06 61.5331 483.917 61.7244 483.45 61.7611C483.127 61.8225 482.373 61.8818 481.512 61.9136V56.1176ZM484.06 36.6571V38.3491L478.138 38.8151V37.1231L484.06 36.6571ZM478.138 41.4071L484.06 40.9411V42.5971L478.138 43.0631V41.4071ZM488.187 33.4523L474.083 34.5623V46.2623L476.272 46.09C475.519 47.4453 474.478 48.5352 474.155 48.8846C473.796 49.2729 473.365 49.4868 472.97 49.6259C473.293 50.2484 473.688 51.4414 473.832 52.0061C474.155 51.8366 474.693 51.6503 476.38 51.3735C475.698 52.0752 475.16 52.5856 474.873 52.8242C474.155 53.4566 473.545 53.8647 472.97 53.9459C473.222 54.5381 473.545 55.5567 473.724 56.1185L473.688 56.1214V66.3814L476.631 66.1498V61.9378L478.784 61.7683V62.7763L480.507 62.6407C480.938 63.7228 481.297 65.1346 481.404 66.0621C483.809 65.8728 485.496 65.6681 486.68 64.8549C487.9 64.0389 488.187 62.8283 488.187 60.7763V33.4523Z" fill="#060E31"/>
</svg>
