<svg width="20" height="20" viewBox="0 0 20 20" fill="none" xmlns="http://www.w3.org/2000/svg">
<g clip-path="url(#clip0_1633_3442)">
<path d="M16.7188 7.89062C16.7188 7.64757 16.6406 7.44792 16.4844 7.29167L15.2995 6.11979C15.1345 5.95486 14.9392 5.8724 14.7135 5.8724C14.4878 5.8724 14.2925 5.95486 14.1276 6.11979L8.8151 11.4193L5.8724 8.47656C5.70747 8.31163 5.51215 8.22917 5.28646 8.22917C5.06076 8.22917 4.86545 8.31163 4.70052 8.47656L3.51562 9.64844C3.35938 9.80469 3.28125 10.0043 3.28125 10.2474C3.28125 10.4818 3.35938 10.6771 3.51562 10.8333L8.22917 15.5469C8.3941 15.7118 8.58941 15.7943 8.8151 15.7943C9.04948 15.7943 9.24913 15.7118 9.41406 15.5469L16.4844 8.47656C16.6406 8.32031 16.7188 8.125 16.7188 7.89062ZM20 10C20 11.8142 19.553 13.4874 18.6589 15.0195C17.7648 16.5516 16.5516 17.7648 15.0195 18.6589C13.4874 19.553 11.8142 20 10 20C8.18576 20 6.51259 19.553 4.98047 18.6589C3.44835 17.7648 2.23524 16.5516 1.34115 15.0195C0.447049 13.4874 0 11.8142 0 10C0 8.18576 0.447049 6.51259 1.34115 4.98047C2.23524 3.44835 3.44835 2.23524 4.98047 1.34115C6.51259 0.447049 8.18576 0 10 0C11.8142 0 13.4874 0.447049 15.0195 1.34115C16.5516 2.23524 17.7648 3.44835 18.6589 4.98047C19.553 6.51259 20 8.18576 20 10Z" fill="#CD2107"/>
</g>
<defs>
<clipPath id="clip0_1633_3442">
<rect width="20" height="20" fill="white"/>
</clipPath>
</defs>
</svg>
