<svg width="16" height="16" viewBox="0 0 16 16" fill="none" xmlns="http://www.w3.org/2000/svg">
<path d="M3.69083 14.5906C3.79867 14.6467 3.91976 14.6724 4.04108 14.6648C4.16241 14.6573 4.2794 14.6169 4.3795 14.5479L13.0462 8.54794C13.1347 8.48658 13.2071 8.40468 13.2571 8.30924C13.3071 8.2138 13.3332 8.10767 13.3332 7.99994C13.3332 7.8922 13.3071 7.78607 13.2571 7.69063C13.2071 7.59519 13.1347 7.51329 13.0462 7.45194L4.3795 1.45194C4.27948 1.38273 4.16244 1.34221 4.04104 1.33475C3.91964 1.32729 3.79852 1.35319 3.69078 1.40963C3.58305 1.46607 3.4928 1.55091 3.42983 1.65496C3.36685 1.75902 3.33354 1.87831 3.3335 1.99994V13.9999C3.33348 14.1216 3.36676 14.241 3.42975 14.3451C3.49274 14.4492 3.58303 14.5341 3.69083 14.5906Z" fill="#CD2107"/>
</svg>
