<svg width="16" height="16" viewBox="0 0 16 16" fill="none" xmlns="http://www.w3.org/2000/svg">
<path d="M12.3092 1.4094C12.2013 1.3533 12.0802 1.32764 11.9589 1.33515C11.8376 1.34267 11.7206 1.38309 11.6205 1.45206L2.95384 7.45206C2.86528 7.51342 2.79291 7.59532 2.74293 7.69076C2.69294 7.7862 2.66683 7.89233 2.66683 8.00006C2.66683 8.1078 2.69294 8.21393 2.74293 8.30937C2.79291 8.40481 2.86528 8.48671 2.95384 8.54806L11.6205 14.5481C11.7205 14.6173 11.8376 14.6578 11.959 14.6652C12.0804 14.6727 12.2015 14.6468 12.3092 14.5904C12.417 14.5339 12.5072 14.4491 12.5702 14.345C12.6332 14.241 12.6665 14.1217 12.6665 14.0001L12.6665 2.00006C12.6665 1.87837 12.6332 1.759 12.5702 1.65488C12.5073 1.55076 12.417 1.46586 12.3092 1.4094Z" fill="#CD2107"/>
</svg>
