<svg width="216" height="40" viewBox="0 0 216 40" fill="none" xmlns="http://www.w3.org/2000/svg">
<path d="M43.1 23.85C44.9667 24.6833 47.8 25.55 51.6 26.45C50.5333 27.4833 49.5833 28.6333 48.75 29.9C47.9167 31.1667 47 32.7 46 34.5L44.95 36.3C42.9167 35.6333 40.8333 34.5167 38.7 32.95C36.6 31.35 34.7 29.4333 33 27.2V29.95C33 33.05 32.6667 35.2 32 36.4C31.3333 37.5667 30.0167 38.3 28.05 38.6C26.1167 38.9 22.5167 39.05 17.25 39.05C16.8167 36.9167 16.45 35.2667 16.15 34.1C15.8833 32.9 15.5167 31.6667 15.05 30.4C11.9833 32.6333 9 34.4333 6.1 35.8C4.4 32.1667 2.48333 29.0167 0.35 26.35C4.25 25.5167 7.6 24.4 10.4 23C13.2333 21.5667 16.6333 19.25 20.6 16.05L21.75 18.75V12.55H12.2C14.3 13.7833 16.4 15.1833 18.5 16.75L11.65 21.75C10.6167 20.9833 9.45 20.2333 8.15 19.5C6.88333 18.7333 5.2 17.8333 3.1 16.8L8.35 12.55H4.7V2.9H21.75V0.999997H33V2.9H35.95L37.75 0.449999C39.6833 1.05 41.6167 1.86666 43.55 2.9H49.3V12.55H41.75L50.5 18.3C47.9667 20.4667 45.5 22.3167 43.1 23.85ZM33 12.55V13.3C33.5667 15.1 34.3 16.5667 35.2 17.7C37.3667 15.9667 39.1833 14.25 40.65 12.55H33ZM17.95 28.15C18.4833 28.1833 19.1167 28.2 19.85 28.2C20.65 28.2 21.1667 28.15 21.4 28.05C21.6333 27.9167 21.75 27.65 21.75 27.25V24.85C20.6833 25.8833 19.4167 26.9833 17.95 28.15ZM105.8 23.1C105.9 25.6 105.95 27.5 105.95 28.8C105.95 30.5333 105.85 32.1333 105.65 33.6C105.383 35.7667 104.95 37.2333 104.35 38C103.783 38.7667 102.917 39.15 101.75 39.15C100.717 39.15 99.6333 38.8 98.5 38.1C97.3667 37.3667 96.2667 36.1833 95.2 34.55C94.5333 35.4833 93.8333 36.3167 93.1 37.05C92.4 37.7833 91.55 38.5 90.55 39.2L89.65 37.95H81.6V38.45H74.6V19.35H90V29.45C90.5333 29.0833 91.2667 28.5 92.2 27.7C91.3333 24.9 90.6667 21.8167 90.2 18.45H73.9V39.3H66.5V37.8L58.45 39.25C58.25 36.0167 57.8667 33.0667 57.3 30.4L59 30.25V8.9H57.95V1.7H74.45V8.9H73.9V11.95H75.7L75.55 9.5H74.95V2.15H78.15V0.649999H85.7V2.15H88.6V9.5H87.5L87.3 11.95H89.6C89.4667 9.95 89.4 7.51667 89.4 4.65C89.4 2.85 89.4167 1.46666 89.45 0.499998H97.35C97.3167 1.06667 97.3 1.88333 97.3 2.95C98.7 2.21667 99.8333 1.51667 100.7 0.849999C101.333 1.65 102 2.65 102.7 3.85C103.433 5.01667 104.133 6.15 104.8 7.25L105.85 9.05C104.617 9.41667 103.283 10.05 101.85 10.95H105.15V18.45H101.75L102.55 19.45L102.05 20.85C103.15 21.85 104.4 22.6 105.8 23.1ZM97.25 7.6C97.25 9.13333 97.2667 10.25 97.3 10.95H99.3L97.25 7.6ZM67.3 11.4V8.9H65.95V11.4H67.3ZM82.5 9.5H81L81.15 11.95H82.35L82.5 9.5ZM67.3 17.9H65.95V20.45H67.3V17.9ZM97.9 18.45C97.8667 18.1833 97.9833 18.9167 98.25 20.65C98.5833 20.1167 98.9833 19.3833 99.45 18.45H97.9ZM101.2 27.9C101.267 27.9 101.3 27.6667 101.3 27.2C101.3 26.8667 101.233 25.6667 101.1 23.6C100.733 24.6667 100.417 25.5167 100.15 26.15C100.583 27.2167 100.933 27.8 101.2 27.9ZM83.4 26.15V24.25H81.6V26.15H83.4ZM67.3 26.9H65.95V29.65L67.3 29.55V26.9ZM81.6 30.25V32.25H83.4V30.25H81.6ZM160.55 11.9H147.5C147.5 12.6 147.483 13.1333 147.45 13.5H160.05V29.65C160.05 31.7167 159.75 33.3833 159.15 34.65C158.55 35.8833 157.267 36.9167 155.3 37.75C153.333 38.55 150.367 39.1 146.4 39.4C145.6 37.3667 145.083 36.0833 144.85 35.55C144.383 37.15 143.95 38.4 143.55 39.3C139.683 38.1333 135.75 37.35 131.75 36.95C133.95 34.6833 135.467 31.5833 136.3 27.65C137.167 23.6833 137.65 18.4333 137.75 11.9H135.6V9.4C133.833 13.8667 132.617 16.8167 131.95 18.25C133.083 19.8833 133.95 21.45 134.55 22.95C135.183 24.4167 135.5 25.8833 135.5 27.35C135.5 30.3833 134.65 32.7167 132.95 34.35C131.25 35.95 128.917 36.7167 125.95 36.65C125.517 33.65 124.833 31.1833 123.9 29.25V38.8H113.95V1.45H133.15L135.6 8.05V2.9H142.1V0.699998H152.9V2.9H160.55V11.9ZM123.9 9.9V15.9C125.067 13.6667 125.7 11.6667 125.8 9.9H123.9ZM123.9 27.35C124.433 27.1833 124.85 26.9 125.15 26.5C125.45 26.0667 125.6 25.5667 125.6 25C125.6 23.9 125.033 22.6 123.9 21.1V27.35ZM147 22.2C146.8 24.6667 146.55 26.8833 146.25 28.85C147.717 28.8167 148.683 28.7667 149.15 28.7C149.65 28.6333 149.95 28.5167 150.05 28.35C150.15 28.15 150.2 27.75 150.2 27.15V22.2H147ZM215.6 12.8H208.25V15.05H214.7V24H208.25V26.25H215.6V35.85H208.25V39.15H198.05V24.7L196.25 26.3L195.65 23.7C195.117 21.2 194.55 18.8833 193.95 16.75V18.75H169.75V13.6H193.95V13.9C194.383 13.6 194.833 13.2167 195.3 12.75H168.4V7.2H195.95V12C196.683 10.9667 197.183 9.63333 197.45 8C197.75 6.33333 197.933 3.86667 198 0.6H207.5L207.2 3.35H215.6V12.8ZM169.75 1.35H193.95V6.35H169.75V1.35ZM169.75 24.75V19.6H193.95V24.75H169.75ZM180.1 39.3H169.35V25.6H194.95V38.7H180.1V39.3ZM184.15 32.9V30.65H180.1V32.9H184.15Z" fill="white"/>
</svg>
