<svg width="574" height="258" viewBox="0 0 574 258" fill="none" xmlns="http://www.w3.org/2000/svg">
<g filter="url(#filter0_i_1367_6511)">
<path d="M92.776 74.276C96.808 76.076 102.928 77.948 111.136 79.892C108.832 82.124 106.78 84.608 104.98 87.344C103.18 90.08 101.2 93.392 99.04 97.28L96.772 101.168C92.38 99.728 87.88 97.316 83.272 93.932C78.736 90.476 74.632 86.336 70.96 81.512V87.452C70.96 94.148 70.24 98.792 68.8 101.384C67.36 103.904 64.516 105.488 60.268 106.136C56.092 106.784 48.316 107.108 36.94 107.108C36.004 102.5 35.212 98.936 34.564 96.416C33.988 93.824 33.196 91.16 32.188 88.424C25.564 93.248 19.12 97.136 12.856 100.088C9.184 92.24 5.044 85.436 0.436 79.676C8.86 77.876 16.096 75.464 22.144 72.44C28.264 69.344 35.608 64.34 44.176 57.428L46.66 63.26V49.868H26.032C30.568 52.532 35.104 55.556 39.64 58.94L24.844 69.74C22.612 68.084 20.092 66.464 17.284 64.88C14.548 63.224 10.912 61.28 6.376 59.048L17.716 49.868H9.832V29.024H46.66V24.92H70.96V29.024H77.332L81.22 23.732C85.396 25.028 89.572 26.792 93.748 29.024H106.168V49.868H89.86L108.76 62.288C103.288 66.968 97.96 70.964 92.776 74.276ZM70.96 49.868V51.488C72.184 55.376 73.768 58.544 75.712 60.992C80.392 57.248 84.316 53.54 87.484 49.868H70.96ZM38.452 83.564C39.604 83.636 40.972 83.672 42.556 83.672C44.284 83.672 45.4 83.564 45.904 83.348C46.408 83.06 46.66 82.484 46.66 81.62V76.436C44.356 78.668 41.62 81.044 38.452 83.564ZM222.808 72.656C223.024 78.056 223.132 82.16 223.132 84.968C223.132 88.712 222.916 92.168 222.484 95.336C221.908 100.016 220.972 103.184 219.676 104.84C218.452 106.496 216.58 107.324 214.06 107.324C211.828 107.324 209.488 106.568 207.04 105.056C204.592 103.472 202.216 100.916 199.912 97.388C198.472 99.404 196.96 101.204 195.376 102.788C193.864 104.372 192.028 105.92 189.868 107.432L187.924 104.732H170.536V105.812H155.416V64.556H188.68V86.372C189.832 85.58 191.416 84.32 193.432 82.592C191.56 76.544 190.12 69.884 189.112 62.612H153.904V107.648H137.92V104.408L120.532 107.54C120.1 100.556 119.272 94.184 118.048 88.424L121.72 88.1V41.984H119.452V26.432H155.092V41.984H153.904V48.572H157.792L157.468 43.28H156.172V27.404H163.084V24.164H179.392V27.404H185.656V43.28H183.28L182.848 48.572H187.816C187.528 44.252 187.384 38.996 187.384 32.804C187.384 28.916 187.42 25.928 187.492 23.84H204.556C204.484 25.064 204.448 26.828 204.448 29.132C207.472 27.548 209.92 26.036 211.792 24.596C213.16 26.324 214.6 28.484 216.112 31.076C217.696 33.596 219.208 36.044 220.648 38.42L222.916 42.308C220.252 43.1 217.372 44.468 214.276 46.412H221.404V62.612H214.06L215.788 64.772L214.708 67.796C217.084 69.956 219.784 71.576 222.808 72.656ZM204.34 39.176C204.34 42.488 204.376 44.9 204.448 46.412H208.768L204.34 39.176ZM139.648 47.384V41.984H136.732V47.384H139.648ZM172.48 43.28H169.24L169.564 48.572H172.156L172.48 43.28ZM139.648 61.424H136.732V66.932H139.648V61.424ZM205.744 62.612C205.672 62.036 205.924 63.62 206.5 67.364C207.22 66.212 208.084 64.628 209.092 62.612H205.744ZM212.872 83.024C213.016 83.024 213.088 82.52 213.088 81.512C213.088 80.792 212.944 78.2 212.656 73.736C211.864 76.04 211.18 77.876 210.604 79.244C211.54 81.548 212.296 82.808 212.872 83.024ZM174.424 79.244V75.14H170.536V79.244H174.424ZM139.648 80.864H136.732V86.804L139.648 86.588V80.864ZM170.536 88.1V92.42H174.424V88.1H170.536ZM337.288 64.448V77.084H333.292V91.556H313.096V97.496C313.096 100.52 312.16 102.752 310.288 104.192C308.488 105.56 305.32 106.496 300.784 107C296.32 107.504 289.48 107.756 280.264 107.756C279.904 105.38 279.328 102.86 278.536 100.196C277.816 97.532 276.916 95.192 275.836 93.176C277.492 93.248 278.896 93.32 280.048 93.392C281.2 93.464 282.136 93.536 282.856 93.608C285.304 93.752 286.78 93.824 287.284 93.824C288.58 93.824 289.444 93.68 289.876 93.392C290.38 93.104 290.632 92.564 290.632 91.772V91.556H271.948V79.028H290.632V77.084H270.004V104.408H250.672V107.216H234.904V27.08H270.004V47.492C272.884 40.94 274.756 33.632 275.62 25.568C288.724 26.216 299.524 26.54 308.02 26.54C316.516 26.54 325.336 26.18 334.48 25.46C334.192 27.836 333.94 30.824 333.724 34.424C333.508 38.024 333.436 41.228 333.508 44.036C332.356 44.108 330.556 44.144 328.108 44.144C331.132 47.744 333.436 51.272 335.02 54.728L333.292 55.16V64.448H337.288ZM300.028 43.064L289.336 42.092C289.12 44.756 288.688 47.924 288.04 51.596H292.144C291.64 49.364 290.848 47.096 289.768 44.792L300.028 43.064ZM316.336 44.036L307.264 43.604C308.848 46.196 310.252 48.86 311.476 51.596H314.392C312.52 48.716 311.188 46.736 310.396 45.656L316.336 44.036ZM254.02 52.028V44.576H250.672V52.028H254.02ZM270.004 64.448H290.632V62.396H271.948V55.592L270.004 55.16V64.448ZM250.672 69.524H254.02V62.396H250.672V69.524ZM313.096 64.448H317.524V62.396H313.096V64.448ZM313.096 79.028H317.524V77.084H313.096V79.028ZM250.672 79.784V87.02H254.02V79.784H250.672ZM413.968 57.752C419.152 70.568 431.968 79.028 452.416 83.132C449.032 86.948 446.404 90.728 444.532 94.472C442.66 98.216 440.536 103.184 438.16 109.376C430.384 107.072 422.86 103.148 415.588 97.604C408.388 91.988 402.592 84.968 398.2 76.544C393.808 84.896 387.976 91.88 380.704 97.496C373.432 103.112 365.944 107.072 358.24 109.376C355.864 103.184 353.74 98.216 351.868 94.472C349.996 90.728 347.368 86.948 343.984 83.132C364.36 79.172 377.104 70.712 382.216 57.752H348.952V33.884H384.916L385.024 23.948L411.484 24.164L411.376 33.884H447.448V57.752H413.968ZM565.384 89.288C563.584 92.168 562.288 95.084 561.496 98.036C560.704 100.988 560.02 104.588 559.444 108.836C551.524 106.172 544.432 102.212 538.168 96.956L538.816 102.464C533.2 103.904 527.188 104.948 520.78 105.596C514.444 106.244 506.632 106.712 497.344 107L496.804 104.732C496.732 104.3 496.48 103.184 496.048 101.384C495.616 99.584 495.112 97.928 494.536 96.416H480.28V105.38H462.028V26.864H501.88V89.504L504.904 89.288V25.784H561.496V73.952H540.22C542.308 76.976 544.324 79.388 546.268 81.188C546.7 79.748 547.096 77.732 547.456 75.14L563.224 76.76C561.856 80.936 560.488 84.68 559.12 87.992C561.064 88.424 563.152 88.856 565.384 89.288ZM542.812 43.712V40.904H524.344V43.712H542.812ZM485.572 46.952V42.956H480.28V46.952H485.572ZM524.344 56.24V58.94H542.812V56.24H524.344ZM480.28 63.26H485.572V59.156H480.28V63.26ZM533.308 73.952H524.344V78.812L533.308 73.952ZM480.28 75.356V79.244H485.572V75.356H480.28ZM524.344 87.776L528.232 87.128C527.368 86.12 526.072 84.464 524.344 82.16V87.776Z" fill="url(#paint0_linear_1367_6511)"/>
</g>
<g filter="url(#filter1_i_1367_6511)">
<path fill-rule="evenodd" clip-rule="evenodd" d="M489.986 152.128C503.784 151.911 526.433 151.324 557.817 150.358L567.875 150.32C567.126 152.978 566.586 155.534 566.51 158.126C566.412 160.599 566.381 164.022 566.418 168.395C555.175 168.813 537.985 169.237 514.593 169.53L514.635 171.541L566.433 172.057L566.84 198.074L565.354 198.076L564.959 197.808L564.681 197.55L564.215 198.104L558.014 197.973L557.526 197.816L557.155 197.669L556.852 197.882L556.643 197.983L555.04 197.976L554.09 197.193L553.417 196.668L552.952 197.222L552.09 198.099L551.393 198.044L550.373 197.492L549.978 197.225L549.537 197.308L547.677 197.753L546.911 197.929L546.33 197.884L544.892 196.944L544.753 196.815L544.498 196.677L542.525 195.932L541.782 195.638L540.316 196.94L539.086 196.489L538.598 196.333L538.041 196.407L536.298 196.861L536.181 196.852L535.531 197.037C535.102 196.59 534.65 196.171 534.215 195.768C533.781 195.365 533.363 194.978 533.004 194.595L531.935 194.984L530.563 195.585L527.125 195.552L526.661 195.515L526.358 195.728L525.428 196.245C524.978 196.067 524.563 195.848 524.109 195.609C523.814 195.454 523.502 195.289 523.154 195.122L522.479 195.778L521.315 196.868L520.758 196.942C520.062 196.297 519.251 195.643 518.439 194.989L517.649 195.045L516.185 195.167C515.327 194.863 514.468 194.56 513.493 194.247L512.002 196.02L509.912 195.856L509.563 196.419L508.817 197.306C508.482 197.28 508.169 197.228 507.843 197.174C507.492 197.116 507.126 197.055 506.704 197.022L506.238 197.576L505.33 198.804L504.493 199.211L502.821 198.844L502.356 198.807L500.428 198.892L500.08 198.865L499.871 198.967L498.638 199.697C498.16 199.659 497.802 199.687 497.332 199.723C497.117 199.74 496.878 199.758 496.594 199.773L496.314 200.105L495.173 201.315L494.127 201.824C493.72 201.792 493.349 201.792 492.977 201.793C492.605 201.793 492.234 201.793 491.827 201.762L490.43 203.424C490.511 198.469 490.593 192.925 490.491 186.42L490.241 173.172L489.986 152.128ZM542.222 185.987L542.181 183.385L512.844 183.094L512.885 185.695L542.222 185.987Z" fill="url(#paint1_linear_1367_6511)"/>
<path fill-rule="evenodd" clip-rule="evenodd" d="M486.189 188.446L486.012 173.786L481.32 173.772L481.328 170.23L487.065 170.325L486.83 150.582L435.706 150L436.464 206.517C436.752 206.451 437.037 206.368 437.316 206.286C437.78 206.151 438.228 206.02 438.648 205.979C438.913 205.966 439.258 205.958 439.632 205.95C440.537 205.93 441.614 205.907 442.156 205.782C442.272 205.791 442.76 205.8 443.248 205.808C443.736 205.817 444.223 205.826 444.339 205.835C444.339 205.835 445.779 206.184 446.266 206.34C446.777 206.321 447.317 206.305 447.858 206.288C448.398 206.271 448.938 206.254 449.449 206.235L450.89 205.994L452.215 205.153L452.913 204.617C453.197 204.81 453.794 205.088 454.436 205.387C454.685 205.503 454.941 205.622 455.187 205.74C456.118 205.223 457.373 204.612 458.21 204.206C458.372 204.218 458.794 204.302 459.246 204.392C459.767 204.496 460.33 204.608 460.579 204.627L462.901 204.809C462.987 204.889 463.215 205.025 463.529 205.213C463.724 205.329 463.952 205.465 464.2 205.62L465.571 205.609L465.687 205.618L466.199 205.304C466.57 205.451 467.661 205.773 468.381 205.948L469.357 205.67C469.619 205.358 470.044 204.946 470.415 204.586C470.703 204.307 470.958 204.06 471.08 203.915C471.242 203.967 471.443 204.022 471.666 204.083C472.113 204.206 472.65 204.353 473.146 204.549L474.007 203.672L474.589 203.127C475.192 203.293 476.678 203.881 477.42 204.176L479.208 204.552L480.276 204.754C480.562 204.415 480.96 203.995 481.27 203.671C481.465 203.465 481.624 203.298 481.697 203.212C482.042 203.306 482.538 203.413 483.035 203.519C483.407 203.599 483.78 203.679 484.088 203.754L485.064 203.476L486.135 202.497L486.437 202.284L486.251 191.758L481.559 191.744L481.451 188.192L486.189 188.446ZM466.135 191.834L456.96 191.706L456.852 188.154L466.027 188.283L466.135 191.834Z" fill="url(#paint2_linear_1367_6511)"/>
<path d="M404.891 187.979L404.812 181.595L425.183 181.656L424.847 154.818L401.341 154.511L402.125 146.659L375.529 146.346C375.485 155.674 375.121 162.732 374.298 167.392C373.591 172.061 372.258 175.854 370.3 178.772L370.098 165.173L293.075 164.333L293.226 180.054L368.414 180.868C367.18 182.189 365.9 183.269 364.691 184.119L364.646 183.289L297.029 182.596L297.206 197.256L364.823 197.949L364.766 192.275L364.944 192.862L364.944 192.863C365.502 194.704 366.036 196.465 366.494 198.316C366.552 198.321 366.605 198.295 366.657 198.27C366.709 198.244 366.762 198.219 366.82 198.224C366.915 198.275 367.013 198.343 367.118 198.416C367.295 198.538 367.491 198.674 367.724 198.767L368.421 198.821L370.186 199.078C370.86 199.013 371.998 198.984 372.462 199.02L372.973 199.296L373.878 199.84L373.879 199.838C374.577 199.303 375.274 198.768 375.669 198.445L378.035 200.047C378.381 199.879 378.768 199.751 379.117 199.635L379.119 199.634L379.12 199.634C379.403 199.54 379.661 199.454 379.848 199.363C380.243 199.63 381.425 200.431 382.237 201.085L383.166 201.158L385.398 200.27C385.666 200.519 386.345 200.946 387.006 201.361L387.007 201.362C387.375 201.593 387.737 201.82 388.019 202.011L388.739 202.186C388.905 202.03 389.086 201.856 389.268 201.682C389.721 201.248 390.175 200.813 390.391 200.662C390.751 200.749 391.343 200.854 391.935 200.96C392.527 201.065 393.119 201.171 393.479 201.258L395.336 201.994L396.891 202.352C398.123 202.212 399.47 202.082 400.818 201.951C400.957 202.08 401.978 202.633 402.72 202.927L403.929 202.668L404.58 202.482L406.621 203.587L407.691 203.199L408.551 202.912L409.362 203.566L410.568 204.487L411.824 203.877L412.427 204.042L414.354 204.548L414.842 204.704L415.236 204.971L416.303 205.763L417.117 205.237L417.722 204.812L418.581 205.115L419.695 205.557C420.391 205.023 421.41 204.396 421.923 204.081L421.925 204.08L421.926 204.079L421.927 204.079C422.205 204.337 422.623 204.723 423.064 205.23L422.892 188.209L404.891 187.979Z" fill="url(#paint3_linear_1367_6511)"/>
<path fill-rule="evenodd" clip-rule="evenodd" d="M221.333 148.67L221.617 167.472L214.858 167.415L218.377 161.903L215.015 148.529L184.308 148.249L185.153 144.299L161.763 144.001C161.775 148.845 160.185 153.681 156.899 158.62C153.706 163.449 149.492 167.725 144.257 171.448C146.386 175.395 148.257 179.794 149.595 184.387C150.771 188.14 151.692 191.756 152.265 195.344C152.52 195.482 152.775 195.62 153.147 195.768L154.612 195.056C154.867 195.194 155.238 195.341 155.609 195.488C155.98 195.635 156.352 195.783 156.839 195.939C157.351 195.625 158.095 195.329 158.421 195.236C158.606 195.31 158.97 195.426 159.396 195.563L159.397 195.563C159.824 195.7 160.312 195.857 160.742 196.009C161.834 195.74 162.81 195.462 163.88 195.073L166.55 195.283L168.338 195.659L169.035 195.714C169.182 195.489 169.348 195.227 169.514 194.965C169.845 194.439 170.177 193.913 170.363 193.692C170.828 193.728 171.472 193.808 172.117 193.888L172.118 193.888C172.762 193.968 173.406 194.048 173.87 194.085C173.928 194.089 174.119 194.193 174.375 194.331C174.63 194.469 174.949 194.642 175.262 194.784C175.491 194.598 175.766 194.454 175.976 194.344C176.128 194.264 176.246 194.203 176.286 194.156L176.727 194.072C177.285 193.998 178.842 193.766 179.283 193.682L181.07 194.649C181.697 194.344 182.302 193.919 182.605 193.706C182.976 193.854 183.742 194.268 184.391 194.673L184.857 194.119L185.672 193.002L187.181 193.711L188.573 194.41L189.688 194.262L190.037 194.289L191.616 194.176C191.779 194.13 192.052 194.063 192.325 193.996C192.598 193.929 192.871 193.861 193.034 193.815L193.266 193.833C193.894 193.528 196.986 192.353 196.986 192.353C197.218 192.371 197.717 192.44 198.216 192.509L198.218 192.509C198.717 192.577 199.216 192.646 199.448 192.664L200.261 192.728C200.516 192.866 201.188 193.391 201.884 194.036C202.279 193.713 202.675 193.39 202.884 193.288C203.255 193.435 203.859 193.601 204.579 193.775C205.022 193.101 205.464 192.427 205.628 192.086L208.995 192.35L209.367 192.497L210.365 192.929L211.063 192.393L211.667 191.968C212.48 192.032 213.664 192.243 214.5 192.427L215.081 192.472L215.614 192.868L217.075 193.928L217.958 193.761L218.191 193.779L219.213 193.741L220.028 192.624L220.587 191.959L223.258 192.168L223.467 192.067L223.322 184.142C225.757 186.104 228.584 188.924 232.153 192.629L232.479 192.537L234.105 192.664L234.33 192.445C234.947 191.843 235.625 191.183 236.246 190.706C236.372 190.799 236.505 190.9 236.647 191.006C237.103 191.35 237.638 191.753 238.24 192.161C238.422 191.885 238.6 191.588 238.766 191.311C239.004 190.913 239.218 190.557 239.383 190.361L241.053 191.319L242.213 192C245.611 188.841 248.406 185.517 250.922 181.935C252.471 185.245 253.695 188.648 254.384 192.246L254.942 192.171L255.383 192.088L255.754 192.235L257.356 192.833L258.541 192.453L258.635 192.343L258.751 192.352L260.54 192.138L260.981 192.054L261.353 192.201L262.629 192.892L263.49 192.014L263.769 191.682L264.118 191.709L265.93 191.615L267.904 191.77L269.577 191.547L271.343 191.213L271.459 191.222L273.294 191.247L273.526 191.266L273.782 191.404L275.429 192.242C276.08 192.056 276.614 191.862 277.033 191.659C278.939 190.863 280.359 189.911 281.012 188.545C281.898 187.197 282.297 185.103 282.396 182.63C282.58 172.841 282.65 161.862 282.492 149.684L221.333 148.67ZM181.493 192.084L178.288 192.069L178.189 184.384L181.394 184.399L181.493 192.084ZM188.657 166.779L178.925 166.725L180.022 164.094L190.684 164.221L188.657 166.779ZM202.027 192.394L198.705 192.37L198.606 184.685L201.928 184.709L202.027 192.394ZM222.804 176.66L222.569 167.665L235.623 167.743C233.015 170.846 228.664 173.812 222.804 176.66ZM258.811 175.348C258.81 175.939 258.763 176.289 258.6 176.631C258.529 176.862 258.018 177.176 257.251 177.352C256.763 177.387 256.097 177.408 255.177 177.436L255.176 177.436C254.608 177.454 253.942 177.475 253.162 177.504C254.749 174.439 256.103 171.356 257.085 168.126L258.804 168.143L258.811 175.348Z" fill="url(#paint4_linear_1367_6511)"/>
<path fill-rule="evenodd" clip-rule="evenodd" d="M112.598 150.069L112.495 144.155L93.9355 144L94.0156 149.794L88.2784 149.698L63.982 149.448C64.083 153.973 64.1803 158.055 64.2672 161.695C64.4527 169.476 64.5902 175.242 64.6134 179.025C64.6909 186 64.6536 192.375 64.3854 198.141C64.7107 198.049 65.0362 197.956 65.2454 197.854L65.9881 198.149L67.1953 198.48L67.9163 198.064L68.3348 197.86C68.5876 197.776 68.8765 197.674 69.178 197.568L69.1793 197.567C69.9032 197.312 70.6994 197.031 71.2405 196.907C71.4054 197.06 71.6755 197.295 72.0019 197.579C72.5011 198.014 73.1326 198.564 73.7211 199.109L74.1396 198.906C74.1396 198.906 74.2557 198.915 74.3489 198.804L76.092 198.35L76.5336 198.267L77.1371 198.432L78.0891 198.625L78.8573 197.858L79.4163 197.193L80.4843 197.395L82.5043 197.79L84.5473 198.304L84.7795 198.323L85.6383 198.626L86.3134 197.97L87.1046 197.324C87.2731 197.39 87.5372 197.465 87.8558 197.554C88.2392 197.662 88.7015 197.792 89.1705 197.958C89.5432 197.515 90.0319 197.081 90.2412 196.979L90.6827 196.895L92.4259 196.441L93.0537 196.136L94.8644 196.633L95.7947 196.115L96.8411 195.606L98.1401 196.417L99.8334 197.495L101.343 197.613L102.643 197.833C103.325 197.54 104.062 197.13 104.767 196.738L104.768 196.737C105.265 196.461 105.745 196.194 106.178 195.984C106.405 196.138 106.833 196.347 107.301 196.575C107.645 196.743 108.011 196.922 108.336 197.098L109.243 196.46L109.569 196.368L111.335 196.034C112.798 195.912 114.285 195.911 115.772 195.909L116.143 196.056L117.838 196.543L119.208 196.533L119.346 196.525C119.436 196.52 119.532 196.515 119.631 196.509L119.634 196.509C120.555 196.457 121.843 196.385 122.739 196.455L126.016 195.649L126.667 195.464L127.409 195.758L129.15 196.485L129.847 196.54L130.824 195.672L130.917 195.561L133.801 193.897L135.146 194.947L135.541 195.214C136.077 194.43 136.613 193.645 136.869 193.193C137.008 193.322 137.286 193.58 137.542 193.718C137.875 190.082 138.069 186.318 138.031 182.535L139.75 182.552C140.434 177.763 140.992 166.94 141.424 150.084L112.598 150.069ZM94.527 181.133L88.7898 181.038L88.6867 175.124L94.424 175.22L94.527 181.133ZM117.778 181.302L112.97 181.28L112.867 175.366L118.024 175.416L117.778 181.302Z" fill="url(#paint5_linear_1367_6511)"/>
<path d="M136.4 204.067L136.399 204.069C136.346 204.321 136.292 204.575 136.239 204.836C136.112 204.767 136.008 204.67 135.903 204.574C135.799 204.477 135.695 204.38 135.567 204.311C135.4 204.51 135.152 204.775 134.88 205.066C134.546 205.423 134.175 205.82 133.867 206.186L133.473 205.919L132.568 205.375C132.127 205.459 131.36 205.635 130.593 205.811C130.315 205.677 130.023 205.531 129.738 205.388C129.12 205.079 128.536 204.786 128.203 204.679C127.9 204.891 127.389 205.206 126.854 205.4C126.395 204.974 125.858 204.506 125.375 204.085C124.981 203.742 124.623 203.429 124.373 203.198C123.885 203.631 123.21 204.287 122.536 204.942L122.534 204.943L122.024 204.667L121.119 204.124C120.813 204.153 120.376 204.246 119.917 204.344C119.367 204.461 118.784 204.585 118.354 204.616L117.587 204.792L116.497 203.879L116.219 203.621C115.964 203.483 114.223 202.756 113.852 202.609L112.854 202.177C112.924 201.946 112.971 201.743 113.018 201.54C113.065 201.337 113.112 201.134 113.182 200.903L113.298 200.912C113.809 200.893 114.35 200.876 114.89 200.86C115.43 200.843 115.97 200.826 116.481 200.807L118.176 201.294L118.431 201.433L118.779 201.46L120.614 201.486L120.846 201.504C121.752 201.457 123.564 201.362 124.493 201.435L124.726 201.453C125.702 201.176 126.678 200.898 127.677 200.74L129.046 201.32L129.418 201.467L132.437 201.704L132.926 201.269L134.299 200.078L134.601 199.865C135.39 200.399 136.178 200.934 136.851 201.459C136.759 202.367 136.583 203.198 136.4 204.067Z" fill="url(#paint6_linear_1367_6511)"/>
<path fill-rule="evenodd" clip-rule="evenodd" d="M134.552 211.554C133.406 215.126 132.144 218.689 130.626 222.113L136.316 222.559C137.687 222.548 139.615 222.463 142.217 222.313C138.617 232.779 135.991 243.558 134.411 254.418C127.191 252.553 120.462 249.073 114.109 243.968C111.155 245.863 107.829 247.61 103.993 249.081C100.251 250.441 95.2764 251.941 89.3962 253.488L88.2251 247.373C87.9738 245.463 87.6293 243.665 87.3079 241.986L86.2758 235.999C85.0747 243.464 83.3887 249.592 81.3569 254.512C76.2783 250.688 69.6646 247.808 61.4927 245.75L61.4875 248.112L42.5799 247.929L42.6397 252.422L19.04 252.226L18.8482 233.903L15.2111 239.996C13.5322 232.424 11.9208 225.801 10.1448 220.111C8.46196 214.31 6.33627 209.182 4 204.747C7.30779 200.518 10.035 196.244 11.9034 191.666C13.8879 187.097 15.505 180.609 16.7547 172.203L9.06634 172.073L8.67963 147.357L60.9424 147.91L61.236 172.737L42.0962 172.536C41.9532 174.178 41.8344 175.35 41.6239 176.042L60.5314 176.225L61.213 225.177C62.7369 218.8 63.7045 211.907 64.1388 204.618C64.1515 204.088 64.1934 203.559 64.2352 203.031C64.277 202.503 64.3188 201.975 64.3316 201.444L65.2567 203.288L66.5812 203.038L68.0206 203.387L68.9955 203.7L69.4141 203.496L69.9717 203.422L71.1789 203.753L72.9883 204.839L73.6378 205.245C74.3116 205.179 75.9373 205.307 76.634 205.361L77.8897 204.751L78.9105 205.304L80.0475 205.865L80.8846 205.458L81.8379 205.061L82.8357 205.493L84.2049 206.073L85.0893 205.315L85.8805 204.669L86.6232 204.963L87.1106 205.119L87.5751 205.156L88.4811 205.109L88.7593 205.367C88.5573 212.674 88.1716 219.022 87.6494 224.06C90.994 224.204 94.2008 223.628 97.1996 222.564C94.7945 217.769 92.7849 212.651 91.2641 207.099C92.1701 207.051 93.3084 207.023 94.1212 207.086L94.633 206.772L95.2378 206.347L95.8873 206.752L97.0473 207.434L97.9775 206.916L99.2332 206.306C99.8138 206.351 100.429 206.429 101.045 206.507C101.66 206.585 102.276 206.662 102.856 206.708L103.298 206.624L103.623 206.532C104.22 207.154 104.828 207.835 105.338 208.406L105.34 208.408L105.341 208.409C105.562 208.656 105.765 208.883 105.94 209.076C106.399 208.934 106.71 208.841 106.943 208.77C107.643 208.56 107.643 208.559 108.846 208.122C109.03 208.371 109.195 208.618 109.355 208.858C109.599 209.222 109.831 209.568 110.096 209.874C110.446 209.311 110.679 208.738 110.913 208.166L111.4 208.323L112.654 208.893L113.561 208.256L114.352 207.609L114.862 207.885C115.233 208.15 115.649 208.457 116.064 208.763L116.065 208.764C116.688 209.223 117.312 209.684 117.785 210.004C118.761 209.726 120.179 209.365 121.387 209.105C121.688 209.286 122.017 209.482 122.347 209.678L122.348 209.679C123.008 210.072 123.668 210.465 124.101 210.735C124.226 210.647 124.38 210.501 124.559 210.329C124.813 210.086 125.12 209.793 125.474 209.544C126.17 210.189 126.865 210.834 127.398 211.23C127.74 211.021 128.267 210.721 128.794 210.421L128.796 210.42L128.799 210.418C129.061 210.269 129.323 210.12 129.561 209.982C129.817 210.12 130.101 210.261 130.385 210.401C130.669 210.541 130.954 210.682 131.209 210.82L131.976 210.644L132.859 210.477C133.392 210.873 134.042 211.278 134.552 211.554ZM37.9643 223.827L41.7504 223.887L41.3282 194.208L37.5421 194.148L37.9643 223.827Z" fill="url(#paint7_linear_1367_6511)"/>
<path d="M223.615 219.716L224.014 239.118C224.144 243.38 223.486 246.518 222.181 248.659C220.852 250.681 218.294 252.252 214.691 253.151C211.066 253.93 205.35 254.545 197.661 255.005C195.627 250.358 193.615 246.42 191.647 243.313C189.657 240.086 186.853 236.796 183.376 233.571C188.742 233.519 192.737 233.477 195.665 233.234C198.615 233.111 200.288 232.888 200.59 232.676C200.986 232.352 201.103 231.771 201.013 230.701L178.784 230.494L176.826 244.16L175.573 253.747C165.335 251.054 156.698 249.551 149.776 249.244C152.299 242.71 153.963 236.462 154.649 230.492C155.265 225.343 155.626 219.466 155.617 212.851L156.43 212.915L157.965 211.972L158.337 212.119C158.824 212.571 159.445 213.113 159.96 213.564L159.962 213.565L159.965 213.568L159.967 213.569L159.968 213.57C160.333 213.889 160.645 214.162 160.817 214.322C161.723 214.275 163.419 214.171 164.302 214.004C164.342 213.957 164.457 213.873 164.614 213.759C164.827 213.605 165.115 213.395 165.396 213.145C165.721 213.348 166.04 213.521 166.327 213.676L166.328 213.676C166.614 213.832 166.869 213.97 167.066 214.103L168.693 213.64L169.737 214.312L170.131 214.579C170.259 214.648 170.805 214.809 171.35 214.97C171.896 215.131 172.441 215.292 172.569 215.361L173.427 215.665L175.73 214.546L175.962 214.564L176.869 213.926L177.24 214.074C177.767 214.562 178.485 215.17 179.142 215.727L179.144 215.728L179.145 215.729C179.701 216.2 180.214 216.635 180.533 216.93C180.72 216.815 180.929 216.654 181.16 216.477L181.161 216.476C181.56 216.169 182.026 215.811 182.556 215.553C182.822 215.697 183.09 215.855 183.348 216.007C183.833 216.293 184.28 216.556 184.598 216.658C184.912 216.506 185.383 216.166 185.854 215.827C185.927 215.774 186 215.721 186.072 215.67L186.198 215.58C186.239 215.551 186.279 215.522 186.32 215.494C186.665 215.651 186.983 215.842 187.217 215.984C187.408 216.098 187.544 216.18 187.596 216.184L190.731 216.43C190.917 216.209 191.848 215.691 192.475 215.386L194.914 215.577C195.586 216.102 196.63 216.774 196.885 216.913L200.229 217.647C200.315 217.605 200.418 217.544 200.538 217.472C200.708 217.371 200.914 217.249 201.159 217.129L203.245 219.065C203.548 218.944 203.985 218.737 204.456 218.513C205.141 218.188 205.897 217.829 206.407 217.659L207.128 217.243L208.033 217.786L208.427 218.053C208.75 218.132 209.272 218.296 209.825 218.471C210.508 218.687 211.239 218.917 211.701 219.019C211.861 218.906 212.173 218.738 212.506 218.559C212.8 218.4 213.112 218.232 213.352 218.085L214.443 218.407L215.046 218.572C215.151 218.521 215.395 218.452 215.68 218.371C215.965 218.29 216.29 218.197 216.557 218.1L217.694 218.662L218.321 218.947C218.785 218.983 219.924 218.955 220.597 218.889L221.875 218.989L223.615 219.716Z" fill="url(#paint8_linear_1367_6511)"/>
<path d="M284.101 241.111L283.866 221.368L271.695 221.123L269.279 221.051L269.093 221.273L268.675 221.476L266.467 221.894L265.956 221.618L264.402 220.669C263.891 220.983 263.286 221.408 262.983 221.621L262.241 221.326L260.871 220.747C260.431 220.961 259.968 221.347 259.626 221.632C259.48 221.754 259.356 221.857 259.266 221.92C258.926 221.736 258.256 221.421 257.586 221.106C257.251 220.949 256.915 220.791 256.621 220.65L255.599 220.688C255.231 220.946 254.813 221.374 254.452 221.743C254.218 221.981 254.008 222.195 253.853 222.323L252.855 221.89L250.743 221.016L249.049 220.529L248.12 220.456C247.538 221.001 246.676 221.878 246.304 222.321L244.934 221.742L243.937 221.309C243.696 221.448 243.433 221.598 243.169 221.748C242.642 222.048 242.115 222.347 241.774 222.557C241.356 222.17 240.545 221.516 239.733 220.862L239.338 221.185L238.174 222.275C237.757 221.888 237.084 221.363 236.412 220.837L227.701 220.745L227.212 221.179C226.957 221.041 226.586 220.894 226.098 220.738L225.866 220.72L226.217 240.472L244.219 240.702L244.352 253.941L269.229 254.237L268.98 240.989L284.101 241.111Z" fill="url(#paint9_linear_1367_6511)"/>
<path d="M283.085 217.291L282.869 199.439L268.491 199.611L268.363 194.168L268.131 194.15L266.296 194.124L264.948 194.255C264.536 194.641 264.053 195.259 263.674 195.745C263.518 195.944 263.38 196.12 263.272 196.249C262.9 196.102 261.531 195.522 260.649 195.099L259.441 195.359C259.374 195.391 259.2 195.462 258.99 195.548L258.988 195.549C258.537 195.734 257.923 195.986 257.86 196.061L257.441 196.265L256.838 196.099L255.259 195.621C254.702 195.696 253.702 195.854 253.493 195.955L253.006 195.799L251.566 195.45L250.59 195.728L248.496 197.335L247.359 196.774L245.851 196.065L244.735 196.214L243.55 196.593L243.614 199.315L241.546 199.271L241.643 197.389C241.398 197.901 241.108 198.026 240.817 198.151C240.526 198.276 240.236 198.401 239.991 198.913L237.741 197.319L237.092 196.914C236.952 197.08 236.807 197.216 236.661 197.353C236.516 197.489 236.37 197.625 236.23 197.791C235.743 197.635 234.698 197.553 233.885 197.489C233.637 197.588 233.366 197.698 233.094 197.808C232.552 198.028 232.009 198.248 231.653 198.377C231.298 198.113 230.612 197.719 229.927 197.324C229.584 197.126 229.24 196.929 228.939 196.747C228.538 196.716 228.092 196.737 227.817 196.751C227.694 196.757 227.604 196.761 227.568 196.758L227.336 196.74L226.268 196.538C226.201 196.917 226.142 197.335 226.076 197.799L226.075 197.803L226.075 197.807L226.075 197.809L226.074 197.811C225.979 198.488 225.869 199.262 225.703 200.155C225.323 203.551 224.526 207.15 223.309 210.952L223.085 196.643L222.969 196.634L222.154 197.751L221.688 198.305L220.782 198.352L219.086 198.456L217.297 198.67L216.414 198.837C216.02 198.57 214.698 197.639 213.77 196.976L213.306 196.939C213.104 197.081 212.88 197.233 212.656 197.386L212.654 197.387C212.205 197.693 211.755 197.999 211.491 198.215L210.377 197.773L208.636 197.046L208.172 197.01L207.357 198.127L206.657 199.253C206.054 199.088 204.963 198.766 204.104 198.462C203.929 198.596 203.749 198.737 203.569 198.878C203.028 199.301 202.487 199.723 202.103 199.959C201.669 199.665 201.019 199.14 200.343 198.596C199.79 198.149 199.221 197.69 198.741 197.333L198.16 197.288L195.3 198.481L195.184 198.472C194.766 198.675 193.371 199.157 192.906 199.12L191.21 199.223L189.56 199.567L188.91 199.752L188.167 199.457L187.54 199.172C187.098 199.846 186.539 200.511 186.166 200.954C185.853 200.811 185.406 200.57 184.928 200.311C184.449 200.052 183.939 199.775 183.498 199.564C183.152 199.732 182.814 199.936 182.509 200.12C182.261 200.27 182.035 200.406 181.846 200.497C181.544 200.273 181.011 199.992 180.44 199.692L180.438 199.691C180.003 199.462 179.547 199.222 179.155 198.987L178.482 199.053L176.364 200.54L175.111 199.97L173.348 199.123L173 199.095C172.759 199.551 172.442 200 172.184 200.365C171.992 200.636 171.834 200.861 171.764 201.006C171.518 200.987 171.116 200.985 170.669 200.983C169.854 200.98 168.884 200.975 168.42 200.862L166.632 200.486L165.238 200.377C164.588 200.562 163.966 200.749 163.344 200.937C162.722 201.124 162.101 201.312 161.45 201.497C161.296 201.436 161.082 201.371 160.832 201.294C160.478 201.185 160.051 201.053 159.616 200.881C158.988 201.186 158.151 201.593 157.826 201.686C157.443 201.478 156.864 201.256 156.285 201.033C156.092 200.959 155.899 200.885 155.714 200.811C155.656 200.807 155.603 200.832 155.551 200.858C155.499 200.883 155.446 200.909 155.388 200.904L155.582 207.888C155.907 207.795 156.117 207.693 156.21 207.583L156.223 207.586L156.227 207.586C157.068 207.771 158.724 208.135 159.669 208.326C159.924 208.464 160.875 209.248 161.57 209.893L161.803 209.911C162.501 209.375 163.594 208.516 164.083 208.082C164.71 208.367 165.731 208.919 166.635 209.463C167.034 209.371 167.427 209.247 167.775 209.137L167.776 209.137C168.095 209.036 168.376 208.947 168.588 208.907C169.121 209.303 170.582 210.363 171.371 210.897L172.09 211.071L173.021 210.554C173.276 210.397 173.735 210.109 174.194 209.82L174.195 209.819C174.654 209.53 175.114 209.242 175.37 209.084C175.997 209.37 177.11 209.811 178.085 210.124L178.235 205.529L181.557 205.553L181.592 210.517C182.102 210.793 182.868 211.208 183.518 211.613C184.122 211.188 184.727 210.763 185.146 210.559C185.772 210.845 187.048 211.535 187.953 212.079L188.65 212.133C189.278 211.828 190.208 211.31 190.394 211.089L195.504 211.489C195.667 211.6 195.945 211.8 196.272 212.035C196.733 212.368 197.291 212.77 197.753 213.083L198.357 213.248C198.462 213.197 198.537 213.144 198.613 213.091C198.688 213.038 198.764 212.985 198.869 212.934L198.768 205.84L202.09 205.864L202.329 213.087L203.164 213.861L203.582 213.658C204.186 213.233 205.648 212.523 206.277 212.217L206.28 212.216C206.669 212.459 207.335 212.851 208 213.243L208.003 213.245L208.004 213.246C208.447 213.507 208.889 213.767 209.249 213.984L209.969 214.158C210.466 213.809 211.198 213.479 211.56 213.315L211.661 213.269C211.692 213.255 211.717 213.243 211.737 213.234C211.981 213.301 212.268 213.391 212.57 213.485C213.013 213.624 213.49 213.774 213.919 213.877C214.686 213.701 215.662 213.424 215.987 213.331C216.217 213.455 216.545 213.611 216.906 213.782C217.348 213.992 217.84 214.226 218.261 214.454L219.515 214.434L219.98 214.471L221.861 214.736L222.325 214.773L222.836 215.049L224.854 216.034L225.342 216.19C225.947 215.765 226.622 215.109 226.808 214.888C227.853 214.97 229.966 215.253 231.151 215.464L232.429 214.974L232.964 214.78L233.255 214.835C234.245 215.02 235.315 215.221 236.307 215.514C236.702 215.781 237.119 216.168 237.536 216.555C237.902 216.213 238.323 215.921 238.684 215.671C238.896 215.524 239.088 215.391 239.235 215.271C239.455 215.525 239.768 215.815 240.115 216.137C240.463 216.46 240.846 216.815 241.205 217.197L242.343 217.168L242.855 216.854C242.924 216.919 243.017 216.955 243.11 216.992C243.203 217.029 243.296 217.066 243.365 217.13L243.946 217.176L243.992 217.416L244.757 217.83L245.526 217.063L246.107 216.519L246.827 216.693L248.731 217.078L249.079 217.106L251.052 217.851L251.168 217.86L252.421 218.431L253.608 217.461L254.073 217.497L255.908 217.523L256.372 217.559L256.743 217.707L258.136 218.406L259.648 217.344L260.39 217.638L261.899 218.347L262.922 217.718L263.643 217.302L264.316 217.828L266.171 219.154L267.193 219.116C267.334 218.948 267.562 218.635 267.802 218.305L267.804 218.303C268.198 217.761 268.624 217.176 268.754 217.112L283.085 217.291Z" fill="url(#paint10_linear_1367_6511)"/>
<path d="M288.774 186.673L287.604 190.715L292.323 189.077L288.774 186.673Z" fill="url(#paint11_linear_1367_6511)"/>
<path d="M286.414 214.363L291.804 213.84L292.977 218.775L286.414 214.363Z" fill="url(#paint12_linear_1367_6511)"/>
<path d="M430.165 197.519L424.752 197.922L431.316 202.334L430.165 197.519Z" fill="url(#paint13_linear_1367_6511)"/>
<path d="M573.404 192.329L573.766 196.609L570.353 195.515L573.404 192.329Z" fill="url(#paint14_linear_1367_6511)"/>
<path d="M152.145 218.012L148.711 216.208L146.755 218.535L150.93 221.224L152.145 218.012Z" fill="url(#paint15_linear_1367_6511)"/>
<path d="M146.503 195.719L148.294 194.915L149.52 197.137L147.126 197.776L146.503 195.719Z" fill="url(#paint16_linear_1367_6511)"/>
<path d="M150.016 224.814L148.226 225.618L148.965 227.684L151.242 227.036L150.016 224.814Z" fill="url(#paint17_linear_1367_6511)"/>
<path d="M284.35 180.893L286.025 180.08L287.39 182.431L284.996 183.07L284.35 180.893Z" fill="url(#paint18_linear_1367_6511)"/>
<path d="M288.553 223.743L286.763 224.548L287.524 226.733L289.802 226.085L288.553 223.743Z" fill="url(#paint19_linear_1367_6511)"/>
<path d="M569.738 200.663L571.412 199.85L572.778 202.201L570.384 202.84L569.738 200.663Z" fill="url(#paint20_linear_1367_6511)"/>
<path d="M431.122 206.098L429.332 206.903L429.954 208.96L432.348 208.32L431.122 206.098Z" fill="url(#paint21_linear_1367_6511)"/>
<path d="M429.433 224.155L431.223 223.351L432.472 225.693L430.078 226.332L429.433 224.155Z" fill="url(#paint22_linear_1367_6511)"/>
<path d="M435.671 228.66L434.65 228.107L434.091 228.772L435.297 229.693L435.671 228.66Z" fill="url(#paint23_linear_1367_6511)"/>
<path d="M137.619 211.44L139.409 210.636L140.635 212.858L138.241 213.497L137.619 211.44Z" fill="url(#paint24_linear_1367_6511)"/>
<path d="M105.564 200.542L103.751 201.227L104.512 203.412L106.79 202.764L105.564 200.542Z" fill="url(#paint25_linear_1367_6511)"/>
<path d="M405.299 213.405L423.3 213.635L423.262 209.852C422.961 209.474 422.544 209.087 421.871 208.562C421.657 208.694 421.422 208.824 421.215 208.939L421.214 208.939C420.927 209.098 420.693 209.228 420.639 209.292C420.151 209.136 419.293 208.832 418.666 208.547C418.335 208.738 417.965 208.975 417.622 209.196C417.216 209.457 416.846 209.694 416.619 209.804C415.97 209.399 414.625 208.349 413.813 207.694L412.861 207.502L410.768 208.519L409.818 207.736L408.612 206.814L406.985 207.277C406.66 207.075 406.306 206.87 405.953 206.665C405.599 206.46 405.245 206.255 404.92 206.052L403.712 206.312L403.177 206.506C402.412 206.092 401.646 205.678 401.019 205.392C400.52 205.471 399.985 205.518 399.451 205.565C398.917 205.611 398.382 205.658 397.883 205.737L397.418 205.701L395.514 205.315L395.282 205.297L393.564 204.69C393.46 204.682 393.304 204.646 393.132 204.606C392.922 204.557 392.688 204.503 392.496 204.488L390.751 206.123L389.915 205.939L387.988 205.434L387.64 205.407L387.384 205.269L386.202 204.467L385.248 204.865L384.552 204.81L382.717 204.785L382.136 204.739L381.603 204.343L380.397 203.422L379.444 203.819L379.56 203.828L380.951 205.119L382.182 204.979L382.74 204.904C382.879 205.033 384.943 206.258 385.199 206.396L385.593 206.664L385.917 207.161L387.144 208.793L388.375 209.244L388.607 209.262L389.86 209.833L391.464 209.25L392.115 209.065L392.88 209.479L394.644 210.326C394.905 210.397 395.282 210.522 395.646 210.642C396.124 210.8 396.578 210.95 396.71 210.96L396.965 211.098L398.658 212.176L400.399 212.903L401.002 213.068L401.443 213.575L402.485 214.838L403.879 214.947L404.134 215.085L405.364 215.536L405.299 213.405Z" fill="url(#paint26_linear_1367_6511)"/>
<path d="M365.162 202.109L365.365 215.118L297.749 214.424L297.572 199.765L354.318 200.433C357.324 200.668 360.531 201.262 363.039 201.726C363.824 201.872 364.541 202.004 365.162 202.109Z" fill="url(#paint27_linear_1367_6511)"/>
<path d="M426.338 247.417L425.949 223.882C425.578 223.735 425.229 223.708 424.184 223.626L423.79 223.358L422.352 222.419L421.191 222.328L419.564 222.791L418.704 223.078C418.17 222.682 417.081 221.77 416.385 221.125L415.085 220.905L412.646 220.713C412.519 220.644 412.38 220.515 412.223 220.37C412.067 220.225 411.893 220.064 411.696 219.93L411.115 219.885C410.675 220.222 410.245 220.607 409.888 220.927C409.678 221.114 409.493 221.28 409.346 221.4C409.045 221.022 408.605 220.515 408.026 219.879L404.82 219.864L404.775 219.033L403.406 218.454L400.852 218.253C400.411 217.747 399.531 216.733 398.929 215.977L397.559 215.397L397.327 215.379L397.188 215.25L395.611 214.181L393.916 213.694L393.8 213.685L393.661 213.556L392.524 212.994L391.036 213.586L390.502 213.781L389.875 213.495L388.018 212.759L386.185 212.143L385.442 211.849C384.956 211.102 384.169 209.977 383.566 209.221L382.778 208.687L381.314 208.809L380.524 208.865L378.299 206.801L377.417 206.377L375.929 206.969L374.976 207.367C374.164 206.713 373.492 206.188 372.819 205.662L371.472 205.793L370.241 205.933C369.861 205.401 369.396 204.644 368.944 203.909C368.652 203.434 368.365 202.967 368.111 202.577L367.763 202.55C368.592 205.685 369.305 208.812 370.064 212.179L371.836 219.641L376.817 215.189L377.353 256.215L405.9 256.563L405.828 247.227L426.338 247.417Z" fill="url(#paint28_linear_1367_6511)"/>
<path fill-rule="evenodd" clip-rule="evenodd" d="M297.193 255.72L327.227 256.066L327.254 254.415L368.739 254.831L368.24 217.587L296.605 216.815L297.193 255.72ZM326.863 231.47L338.221 231.652L338.3 238.036L326.965 237.974L326.863 231.47Z" fill="url(#paint29_linear_1367_6511)"/>
<path d="M364.621 162.854L297.005 162.161L296.804 147.971L364.421 148.665L364.621 162.854Z" fill="url(#paint30_linear_1367_6511)"/>
<path d="M464.379 240.001C463.484 235.326 462.772 231.61 462.128 228.844L461.547 228.798L461.06 228.642L455.903 228.592L456.569 232.07C456.632 232.395 456.755 233.162 456.946 234.348L456.946 234.351L456.948 234.36C457.178 235.792 457.507 237.833 457.945 240.445C458.747 245.232 459.247 250.232 459.631 255.223L466.718 254.007C466.078 249.469 465.298 244.801 464.38 240.005L464.379 240.001Z" fill="url(#paint31_linear_1367_6511)"/>
<path d="M448.796 228.507L454.184 228.575L454.825 233.114C456.22 242.79 457.064 250.179 457.377 255.401L450.872 256.072C450.786 252.64 450.055 247.032 448.911 239.265L448.295 234.256C448.281 235.122 448.268 235.96 448.256 236.771L448.254 236.954C448.198 240.695 448.15 243.843 448.012 246.517C447.935 248.913 447.686 251.513 447.421 254.272C447.348 255.04 447.273 255.82 447.2 256.611C443.044 255.813 439.166 255.273 435.45 254.981C436.486 249.039 437.17 244.25 437.364 240.486C437.674 236.73 437.917 232.025 437.907 226L436.885 226.038C437.094 225.937 437.303 225.835 437.397 225.724L438.697 225.944L440.508 226.44C440.519 226.5 441.042 226.541 441.579 226.583C442.116 226.626 442.667 226.669 442.737 226.733L444.595 226.879L446.15 227.237L447.867 228.435L448.261 228.702C448.246 228.622 448.344 228.603 448.507 228.572C448.589 228.557 448.687 228.538 448.796 228.507Z" fill="url(#paint32_linear_1367_6511)"/>
<path fill-rule="evenodd" clip-rule="evenodd" d="M563.584 200.181L563.677 200.07L566.696 200.307L567.255 241.454C567.268 246.297 566.889 249.693 566.002 251.631C565.208 253.459 563.509 254.743 560.883 255.364C558.257 255.985 553.331 256.544 546.106 257.04L545.54 250.5L539.129 250.47L538.908 234.98L536.492 234.909L536.713 250.399L528.467 250.343L528.13 234.844L525.947 234.791L526.27 256.785L510.103 256.581L509.554 221.458C509.16 231.349 507.952 241.766 505.744 252.932C498.783 249.434 493.006 246.737 488.666 244.979C488.238 249.316 486.884 252.399 484.441 253.979C482.092 255.448 478.048 256.43 472.171 256.797L471.946 253.236L468.484 253.673C467.502 246.155 465.918 237.881 463.824 228.74L464.149 228.648L469.887 228.743L471.108 233.327C471.457 232.764 471.622 231.832 471.625 230.651C471.743 229.479 471.7 228.059 471.611 226.398L453.051 226.243C452.425 225.957 451.682 225.663 451.566 225.654L451.264 225.866L450.636 226.171L448.336 226.109L448.289 226.46L446.805 225.28L446.666 225.151C446.55 225.142 446.034 224.984 445.517 224.825C445.001 224.667 444.484 224.508 444.368 224.499L444.252 224.49L442.371 224.224L440.606 223.968L438.749 223.232C438.592 223.147 438.083 223.034 437.575 222.922C437.257 222.851 436.939 222.781 436.706 222.717L436.525 210.419C437.733 210.16 438.825 209.891 439.895 209.502L441.614 209.519L443.426 209.425L444.912 209.423L446.723 209.919L446.955 209.938C447.64 209.932 448.291 209.895 448.941 209.857C449.592 209.82 450.243 209.782 450.928 209.777C451.276 209.804 452.81 209.452 453.135 209.359C453.112 209.239 453.624 208.925 454.136 208.611C454.46 208.786 454.827 208.965 455.171 209.133C455.639 209.362 456.066 209.571 456.293 209.725L457.015 209.309C457.061 209.253 457.113 209.228 457.166 209.203C457.218 209.177 457.27 209.152 457.317 209.096L464.076 209.154L464.354 209.412L465.282 210.075C465.47 209.983 465.738 209.827 466.033 209.654C466.395 209.443 466.797 209.208 467.143 209.04C467.769 209.325 468.86 209.647 468.976 209.656C469.139 209.609 469.604 209.498 470.069 209.387C470.534 209.276 470.998 209.165 471.161 209.118L471.486 209.026L471.673 208.804L472.534 207.927L473.625 208.248L474.484 208.552C474.67 208.33 475.345 207.675 475.834 207.241L476.948 207.682L477.064 207.691C478.271 208.022 480.175 208.408 481.592 208.637L481.636 209.467L488.163 209.506L488.36 225.467C489.23 221.047 489.706 215.769 489.928 209.763C489.917 209.407 489.936 209.054 489.954 208.701C489.972 208.349 489.99 207.996 489.979 207.641C490.235 207.779 490.49 207.917 490.606 207.926C490.85 207.709 491.252 207.415 491.653 207.122C492.054 206.829 492.456 206.535 492.7 206.318L492.886 206.097L493.609 205.09L494.863 205.071L495.328 205.107C495.479 205.001 495.868 204.795 496.257 204.59L496.258 204.589C496.648 204.383 497.037 204.178 497.188 204.072C497.304 204.081 497.397 203.97 497.491 203.859L498.445 202.871L499.793 202.74L500.141 202.768L500.35 202.666L501.583 201.936L502.931 201.805L504.834 202.191L505.322 202.347C505.589 202.25 506.041 202.079 506.494 201.908L506.495 201.908L506.496 201.907C506.95 201.736 507.403 201.565 507.67 201.468L508.601 200.36C509.01 200.392 509.545 200.474 509.989 200.543C510.303 200.591 510.57 200.632 510.715 200.644L511.18 200.09L511.903 199.083L512.483 199.129L512.529 199.368L519.405 199.435C519.799 199.702 520.077 199.96 520.216 200.089C520.611 200.061 521.175 200.017 521.738 199.972L521.745 199.972C522.306 199.927 522.867 199.883 523.26 199.855C523.298 199.809 523.357 199.765 523.425 199.713C523.522 199.64 523.639 199.551 523.748 199.421L525.583 199.447L526.349 199.861L526.977 199.556L534.201 199.65L535.453 200.811L536.406 200.413L537.755 199.692L540.96 199.707L541.448 199.863L541.657 199.762L545.791 199.85L546.047 199.988L546.696 200.393C546.905 200.291 547.44 200.097 547.975 199.903L551.761 199.963L552.504 200.257L552.783 199.925L555.64 199.913L556.034 200.18C556.15 200.189 556.244 200.078 556.337 199.967L563.328 200.043L563.584 200.181ZM525.741 222.963L528.04 223.025L527.707 215.913L525.64 215.869L525.741 222.963ZM536.186 215.987L536.286 223.081L538.818 223.162L538.717 216.067L536.186 215.987ZM549.236 238.742C549.422 238.52 549.47 238.17 549.471 237.579L549.476 235.218L546.944 235.137L546.983 238.92L548.121 238.891C548.334 238.862 548.516 238.849 548.672 238.837C548.924 238.819 549.107 238.805 549.236 238.742ZM549.031 216.167L546.615 216.095L546.715 223.19L549.247 223.27L549.031 216.167Z" fill="url(#paint33_linear_1367_6511)"/>
</g>
<defs>
<filter id="filter0_i_1367_6511" x="0.436035" y="23.7319" width="564.948" height="85.644" filterUnits="userSpaceOnUse" color-interpolation-filters="sRGB">
<feFlood flood-opacity="0" result="BackgroundImageFix"/>
<feBlend mode="normal" in="SourceGraphic" in2="BackgroundImageFix" result="shape"/>
<feColorMatrix in="SourceAlpha" type="matrix" values="0 0 0 0 0 0 0 0 0 0 0 0 0 0 0 0 0 0 127 0" result="hardAlpha"/>
<feOffset dx="4" dy="4"/>
<feComposite in2="hardAlpha" operator="arithmetic" k2="-1" k3="1"/>
<feColorMatrix type="matrix" values="0 0 0 0 0.952941 0 0 0 0 0.956863 0 0 0 0 0.964706 0 0 0 1 0"/>
<feBlend mode="normal" in2="shape" result="effect1_innerShadow_1367_6511"/>
</filter>
<filter id="filter1_i_1367_6511" x="4" y="144" width="569.766" height="113.04" filterUnits="userSpaceOnUse" color-interpolation-filters="sRGB">
<feFlood flood-opacity="0" result="BackgroundImageFix"/>
<feBlend mode="normal" in="SourceGraphic" in2="BackgroundImageFix" result="shape"/>
<feColorMatrix in="SourceAlpha" type="matrix" values="0 0 0 0 0 0 0 0 0 0 0 0 0 0 0 0 0 0 127 0" result="hardAlpha"/>
<feOffset dx="4" dy="4"/>
<feComposite in2="hardAlpha" operator="arithmetic" k2="-1" k3="1"/>
<feColorMatrix type="matrix" values="0 0 0 0 0.952941 0 0 0 0 0.956863 0 0 0 0 0.964706 0 0 0 1 0"/>
<feBlend mode="normal" in2="shape" result="effect1_innerShadow_1367_6511"/>
</filter>
<linearGradient id="paint0_linear_1367_6511" x1="285" y1="0" x2="285" y2="120" gradientUnits="userSpaceOnUse">
<stop offset="0.270833" stop-color="white"/>
<stop offset="1" stop-color="#BDD6FF"/>
</linearGradient>
<linearGradient id="paint1_linear_1367_6511" x1="288.883" y1="144" x2="288.883" y2="257.04" gradientUnits="userSpaceOnUse">
<stop offset="0.223958" stop-color="white"/>
<stop offset="1" stop-color="#BDD6FF"/>
</linearGradient>
<linearGradient id="paint2_linear_1367_6511" x1="288.883" y1="144" x2="288.883" y2="257.04" gradientUnits="userSpaceOnUse">
<stop offset="0.223958" stop-color="white"/>
<stop offset="1" stop-color="#BDD6FF"/>
</linearGradient>
<linearGradient id="paint3_linear_1367_6511" x1="288.883" y1="144" x2="288.883" y2="257.04" gradientUnits="userSpaceOnUse">
<stop offset="0.223958" stop-color="white"/>
<stop offset="1" stop-color="#BDD6FF"/>
</linearGradient>
<linearGradient id="paint4_linear_1367_6511" x1="288.883" y1="144" x2="288.883" y2="257.04" gradientUnits="userSpaceOnUse">
<stop offset="0.223958" stop-color="white"/>
<stop offset="1" stop-color="#BDD6FF"/>
</linearGradient>
<linearGradient id="paint5_linear_1367_6511" x1="288.883" y1="144" x2="288.883" y2="257.04" gradientUnits="userSpaceOnUse">
<stop offset="0.223958" stop-color="white"/>
<stop offset="1" stop-color="#BDD6FF"/>
</linearGradient>
<linearGradient id="paint6_linear_1367_6511" x1="288.883" y1="144" x2="288.883" y2="257.04" gradientUnits="userSpaceOnUse">
<stop offset="0.223958" stop-color="white"/>
<stop offset="1" stop-color="#BDD6FF"/>
</linearGradient>
<linearGradient id="paint7_linear_1367_6511" x1="288.883" y1="144" x2="288.883" y2="257.04" gradientUnits="userSpaceOnUse">
<stop offset="0.223958" stop-color="white"/>
<stop offset="1" stop-color="#BDD6FF"/>
</linearGradient>
<linearGradient id="paint8_linear_1367_6511" x1="288.883" y1="144" x2="288.883" y2="257.04" gradientUnits="userSpaceOnUse">
<stop offset="0.223958" stop-color="white"/>
<stop offset="1" stop-color="#BDD6FF"/>
</linearGradient>
<linearGradient id="paint9_linear_1367_6511" x1="288.883" y1="144" x2="288.883" y2="257.04" gradientUnits="userSpaceOnUse">
<stop offset="0.223958" stop-color="white"/>
<stop offset="1" stop-color="#BDD6FF"/>
</linearGradient>
<linearGradient id="paint10_linear_1367_6511" x1="288.883" y1="144" x2="288.883" y2="257.04" gradientUnits="userSpaceOnUse">
<stop offset="0.223958" stop-color="white"/>
<stop offset="1" stop-color="#BDD6FF"/>
</linearGradient>
<linearGradient id="paint11_linear_1367_6511" x1="288.883" y1="144" x2="288.883" y2="257.04" gradientUnits="userSpaceOnUse">
<stop offset="0.223958" stop-color="white"/>
<stop offset="1" stop-color="#BDD6FF"/>
</linearGradient>
<linearGradient id="paint12_linear_1367_6511" x1="288.883" y1="144" x2="288.883" y2="257.04" gradientUnits="userSpaceOnUse">
<stop offset="0.223958" stop-color="white"/>
<stop offset="1" stop-color="#BDD6FF"/>
</linearGradient>
<linearGradient id="paint13_linear_1367_6511" x1="288.883" y1="144" x2="288.883" y2="257.04" gradientUnits="userSpaceOnUse">
<stop offset="0.223958" stop-color="white"/>
<stop offset="1" stop-color="#BDD6FF"/>
</linearGradient>
<linearGradient id="paint14_linear_1367_6511" x1="288.883" y1="144" x2="288.883" y2="257.04" gradientUnits="userSpaceOnUse">
<stop offset="0.223958" stop-color="white"/>
<stop offset="1" stop-color="#BDD6FF"/>
</linearGradient>
<linearGradient id="paint15_linear_1367_6511" x1="288.883" y1="144" x2="288.883" y2="257.04" gradientUnits="userSpaceOnUse">
<stop offset="0.223958" stop-color="white"/>
<stop offset="1" stop-color="#BDD6FF"/>
</linearGradient>
<linearGradient id="paint16_linear_1367_6511" x1="288.883" y1="144" x2="288.883" y2="257.04" gradientUnits="userSpaceOnUse">
<stop offset="0.223958" stop-color="white"/>
<stop offset="1" stop-color="#BDD6FF"/>
</linearGradient>
<linearGradient id="paint17_linear_1367_6511" x1="288.883" y1="144" x2="288.883" y2="257.04" gradientUnits="userSpaceOnUse">
<stop offset="0.223958" stop-color="white"/>
<stop offset="1" stop-color="#BDD6FF"/>
</linearGradient>
<linearGradient id="paint18_linear_1367_6511" x1="288.883" y1="144" x2="288.883" y2="257.04" gradientUnits="userSpaceOnUse">
<stop offset="0.223958" stop-color="white"/>
<stop offset="1" stop-color="#BDD6FF"/>
</linearGradient>
<linearGradient id="paint19_linear_1367_6511" x1="288.883" y1="144" x2="288.883" y2="257.04" gradientUnits="userSpaceOnUse">
<stop offset="0.223958" stop-color="white"/>
<stop offset="1" stop-color="#BDD6FF"/>
</linearGradient>
<linearGradient id="paint20_linear_1367_6511" x1="288.883" y1="144" x2="288.883" y2="257.04" gradientUnits="userSpaceOnUse">
<stop offset="0.223958" stop-color="white"/>
<stop offset="1" stop-color="#BDD6FF"/>
</linearGradient>
<linearGradient id="paint21_linear_1367_6511" x1="288.883" y1="144" x2="288.883" y2="257.04" gradientUnits="userSpaceOnUse">
<stop offset="0.223958" stop-color="white"/>
<stop offset="1" stop-color="#BDD6FF"/>
</linearGradient>
<linearGradient id="paint22_linear_1367_6511" x1="288.883" y1="144" x2="288.883" y2="257.04" gradientUnits="userSpaceOnUse">
<stop offset="0.223958" stop-color="white"/>
<stop offset="1" stop-color="#BDD6FF"/>
</linearGradient>
<linearGradient id="paint23_linear_1367_6511" x1="288.883" y1="144" x2="288.883" y2="257.04" gradientUnits="userSpaceOnUse">
<stop offset="0.223958" stop-color="white"/>
<stop offset="1" stop-color="#BDD6FF"/>
</linearGradient>
<linearGradient id="paint24_linear_1367_6511" x1="288.883" y1="144" x2="288.883" y2="257.04" gradientUnits="userSpaceOnUse">
<stop offset="0.223958" stop-color="white"/>
<stop offset="1" stop-color="#BDD6FF"/>
</linearGradient>
<linearGradient id="paint25_linear_1367_6511" x1="288.883" y1="144" x2="288.883" y2="257.04" gradientUnits="userSpaceOnUse">
<stop offset="0.223958" stop-color="white"/>
<stop offset="1" stop-color="#BDD6FF"/>
</linearGradient>
<linearGradient id="paint26_linear_1367_6511" x1="288.883" y1="144" x2="288.883" y2="257.04" gradientUnits="userSpaceOnUse">
<stop offset="0.223958" stop-color="white"/>
<stop offset="1" stop-color="#BDD6FF"/>
</linearGradient>
<linearGradient id="paint27_linear_1367_6511" x1="288.883" y1="144" x2="288.883" y2="257.04" gradientUnits="userSpaceOnUse">
<stop offset="0.223958" stop-color="white"/>
<stop offset="1" stop-color="#BDD6FF"/>
</linearGradient>
<linearGradient id="paint28_linear_1367_6511" x1="288.883" y1="144" x2="288.883" y2="257.04" gradientUnits="userSpaceOnUse">
<stop offset="0.223958" stop-color="white"/>
<stop offset="1" stop-color="#BDD6FF"/>
</linearGradient>
<linearGradient id="paint29_linear_1367_6511" x1="288.883" y1="144" x2="288.883" y2="257.04" gradientUnits="userSpaceOnUse">
<stop offset="0.223958" stop-color="white"/>
<stop offset="1" stop-color="#BDD6FF"/>
</linearGradient>
<linearGradient id="paint30_linear_1367_6511" x1="288.883" y1="144" x2="288.883" y2="257.04" gradientUnits="userSpaceOnUse">
<stop offset="0.223958" stop-color="white"/>
<stop offset="1" stop-color="#BDD6FF"/>
</linearGradient>
<linearGradient id="paint31_linear_1367_6511" x1="288.883" y1="144" x2="288.883" y2="257.04" gradientUnits="userSpaceOnUse">
<stop offset="0.223958" stop-color="white"/>
<stop offset="1" stop-color="#BDD6FF"/>
</linearGradient>
<linearGradient id="paint32_linear_1367_6511" x1="288.883" y1="144" x2="288.883" y2="257.04" gradientUnits="userSpaceOnUse">
<stop offset="0.223958" stop-color="white"/>
<stop offset="1" stop-color="#BDD6FF"/>
</linearGradient>
<linearGradient id="paint33_linear_1367_6511" x1="288.883" y1="144" x2="288.883" y2="257.04" gradientUnits="userSpaceOnUse">
<stop offset="0.223958" stop-color="white"/>
<stop offset="1" stop-color="#BDD6FF"/>
</linearGradient>
</defs>
</svg>
