<svg width="20" height="20" viewBox="0 0 20 20" fill="none" xmlns="http://www.w3.org/2000/svg">
<g clip-path="url(#clip0_1633_5416)">
<path d="M20.0002 9.375C20.0002 13.8633 15.5236 17.5 10.0002 17.5C8.55096 17.5 7.17596 17.25 5.93377 16.8008C5.46893 17.1406 4.71112 17.6055 3.81268 17.9961C2.87518 18.4023 1.74628 18.75 0.625182 18.75C0.371276 18.75 0.144713 18.5977 0.0470568 18.3633C-0.0505994 18.1289 0.00408808 17.8633 0.179869 17.6836L0.191588 17.6719C0.203307 17.6602 0.218932 17.6445 0.242369 17.6172C0.285338 17.5703 0.351744 17.4961 0.433776 17.3945C0.593932 17.1992 0.808776 16.9102 1.02753 16.5508C1.41815 15.9023 1.78924 15.0508 1.86346 14.0938C0.691588 12.7656 0.00018184 11.1367 0.00018184 9.375C0.00018184 4.88672 4.47674 1.25 10.0002 1.25C15.5236 1.25 20.0002 4.88672 20.0002 9.375Z" fill="#CD2107"/>
</g>
<defs>
<clipPath id="clip0_1633_5416">
<rect width="20" height="20" fill="white"/>
</clipPath>
</defs>
</svg>
