<svg width="17" height="16" viewBox="0 0 17 16" fill="none" xmlns="http://www.w3.org/2000/svg">
<path d="M12.8092 1.40891C12.7013 1.35282 12.5802 1.32715 12.4589 1.33467C12.3376 1.34218 12.2206 1.3826 12.1205 1.45158L3.45384 7.45157C3.36528 7.51293 3.29291 7.59483 3.24293 7.69027C3.19294 7.78571 3.16683 7.89184 3.16683 7.99957C3.16683 8.10731 3.19294 8.21344 3.24293 8.30888C3.29291 8.40432 3.36528 8.48622 3.45384 8.54757L12.1205 14.5476C12.2205 14.6168 12.3376 14.6573 12.459 14.6648C12.5804 14.6722 12.7015 14.6463 12.8092 14.5899C12.917 14.5334 13.0072 14.4486 13.0702 14.3445C13.1332 14.2405 13.1665 14.1212 13.1665 13.9996L13.1665 1.99958C13.1665 1.87788 13.1332 1.75851 13.0702 1.65439C13.0073 1.55027 12.917 1.46537 12.8092 1.40891Z" fill="#060E31"/>
</svg>
