<svg width="16" height="16" viewBox="0 0 16 16" fill="none" xmlns="http://www.w3.org/2000/svg">
<path d="M12.3092 1.40934C12.2013 1.35324 12.0802 1.32758 11.9589 1.33509C11.8376 1.34261 11.7206 1.38303 11.6205 1.452L2.95384 7.452C2.86528 7.51336 2.79291 7.59526 2.74292 7.6907C2.69294 7.78614 2.66683 7.89227 2.66683 8C2.66683 8.10774 2.69294 8.21387 2.74292 8.30931C2.79291 8.40474 2.86528 8.48665 2.95384 8.548L11.6205 14.548C11.7205 14.6172 11.8376 14.6577 11.959 14.6652C12.0804 14.6726 12.2015 14.6468 12.3092 14.5903C12.417 14.5339 12.5072 14.449 12.5702 14.345C12.6332 14.2409 12.6665 14.1216 12.6665 14L12.6665 2C12.6665 1.87831 12.6332 1.75894 12.5702 1.65482C12.5073 1.55069 12.417 1.4658 12.3092 1.40934Z" fill="white"/>
</svg>
