<svg width="182" height="35" viewBox="0 0 182 35" fill="none" xmlns="http://www.w3.org/2000/svg">
<mask id="path-1-inside-1_16_7" fill="white">
<path fill-rule="evenodd" clip-rule="evenodd" d="M20.4639 0.571411H181.214V22.5714L160.964 34.5714H0.213867V12.5714L20.4639 0.571411Z"/>
</mask>
<path fill-rule="evenodd" clip-rule="evenodd" d="M20.4639 0.571411H181.214V22.5714L160.964 34.5714H0.213867V12.5714L20.4639 0.571411Z" fill="#FFE500"/>
<path d="M181.214 0.571411H182.039V-0.253749H181.214V0.571411ZM20.4639 0.571411V-0.253749H20.2377L20.0432 -0.138467L20.4639 0.571411ZM181.214 22.5714L181.635 23.2813L182.039 23.0416V22.5714H181.214ZM160.964 34.5714V35.3966H161.19L161.385 35.2813L160.964 34.5714ZM0.213867 34.5714H-0.611293V35.3966H0.213867V34.5714ZM0.213867 12.5714L-0.206801 11.8615L-0.611293 12.1012V12.5714H0.213867ZM181.214 -0.253749H20.4639V1.39657H181.214V-0.253749ZM182.039 22.5714V0.571411H180.389V22.5714H182.039ZM161.385 35.2813L181.635 23.2813L180.793 21.8615L160.543 33.8615L161.385 35.2813ZM0.213867 35.3966H160.964V33.7463H0.213867V35.3966ZM-0.611293 12.5714V34.5714H1.03903V12.5714H-0.611293ZM20.0432 -0.138467L-0.206801 11.8615L0.634536 13.2813L20.8845 1.28129L20.0432 -0.138467Z" fill="#004397" mask="url(#path-1-inside-1_16_7)"/>
</svg>
